<svg version="1.1" preserveAspectRatio="none" xmlns="http://www.w3.org/2000/svg" width="500" height="500" viewBox="0 0 500 500"><rect width="100%" height="100%" fill="#101010" fill-opacity="1"/><svg viewBox="611.6237 647.0102 382.2366 161.2" width="333" height="140.435531291352" x="83.5px" y="179.7822px" xmlns="http://www.w3.org/2000/svg" xmlns:xlink="http://www.w3.org/1999/xlink" preserveAspectRatio="none"><defs></defs><style>.companyName {fill:#EFEFEF;fill-opacity:1;}.icon1 {fill:#EFEFEF;fill-opacity:1;}.icon3-str {stroke:#C0C0C0;stroke-opacity:1;}</style><g opacity="1" transform="rotate(0 626.3723 789.0102)">
<svg width="352.7394" height="19.2" x="626.3723" y="789.0102" version="1.1" preserveAspectRatio="none" viewBox="2.76 -28.6 723.84 39.4">
  <g transform="matrix(1 0 0 1 0 0)" class="icon1"><path id="id-6izo4zJp23" d="M18.92-24.56L7.32-24.56L7.32-16L17.72-16L17.72-12.48L7.32-12.48L7.32-3.72L18.92-3.72L18.92 0L2.76 0L2.76-28.24L18.92-28.24L18.92-24.56Z M34.08-22.04L40.40-4.72L46.64-22.04L51.52-22.04L43.12 0L37.60 0L29.20-22.04L34.08-22.04Z M83.36-12.08Q83.36-10.96 83.20-10.12L83.20-10.12L66.24-10.12Q66.36-6.72 68.12-5.08Q69.88-3.44 72.48-3.44L72.48-3.44Q74.76-3.44 76.34-4.60Q77.92-5.76 78.28-7.68L78.28-7.68L83.16-7.68Q82.72-5.36 81.32-3.56Q79.92-1.76 77.68-0.74Q75.44 0.28 72.68 0.28L72.68 0.28Q69.48 0.28 67.02-1.08Q64.56-2.44 63.16-5Q61.76-7.56 61.76-11.04L61.76-11.04Q61.76-14.48 63.16-17.04Q64.56-19.60 67.02-20.96Q69.48-22.32 72.68-22.32L72.68-22.32Q75.92-22.32 78.34-20.98Q80.76-19.64 82.06-17.30Q83.36-14.96 83.36-12.08L83.36-12.08ZM78.76-12.20Q78.84-14.36 78.02-15.82Q77.20-17.28 75.78-17.98Q74.36-18.68 72.68-18.68L72.68-18.68Q70-18.68 68.20-17.04Q66.40-15.40 66.24-12.20L66.24-12.20L78.76-12.20Z M108.08-22.40Q111.92-22.40 114.24-19.92Q116.56-17.44 116.56-12.84L116.56-12.84L116.56 0L112 0L112-12.36Q112-15.32 110.48-16.94Q108.96-18.56 106.32-18.56L106.32-18.56Q103.60-18.56 101.96-16.82Q100.32-15.08 100.32-11.72L100.32-11.72L100.32 0L95.76 0L95.76-22.04L100.32-22.04L100.32-17.20Q101.20-19.68 103.28-21.04Q105.36-22.40 108.08-22.40L108.08-22.40Z M138.76-3.96L140.96-3.96L140.96 0L138.16 0Q134.64 0 132.82-1.70Q131-3.40 131-7.36L131-7.36L131-18.16L127.84-18.16L127.84-22.04L131-22.04L131-27.52L135.60-27.52L135.60-22.04L140.92-22.04L140.92-18.16L135.60-18.16L135.60-7.28Q135.60-5.40 136.30-4.68Q137-3.96 138.76-3.96L138.76-3.96Z M194.36-27.80L199.88-27.80L199.88 0L195.28 0L195.28-20.84L187.24 0L183.24 0L175.16-20.84L175.16 0L170.60 0L170.60-27.80L176.12-27.80L185.32-5.60L194.36-27.80Z M222.20-22.32Q225.20-22.32 227.32-20.84Q229.44-19.36 230.32-16.92L230.32-16.92L230.32-22.04L234.88-22.04L234.88 0L230.32 0L230.32-5.12Q229.44-2.68 227.32-1.20Q225.20 0.28 222.20 0.28L222.20 0.28Q219.32 0.28 217.06-1.08Q214.80-2.44 213.52-5Q212.24-7.56 212.24-11.04L212.24-11.04Q212.24-14.48 213.52-17.04Q214.80-19.60 217.06-20.96Q219.32-22.32 222.20-22.32L222.20-22.32ZM223.60-18.32Q220.56-18.32 218.74-16.38Q216.92-14.44 216.92-11.04L216.92-11.04Q216.92-7.64 218.74-5.70Q220.56-3.76 223.60-3.76L223.60-3.76Q225.52-3.76 227.04-4.66Q228.56-5.56 229.44-7.20Q230.32-8.84 230.32-11.04L230.32-11.04Q230.32-13.20 229.44-14.86Q228.56-16.52 227.04-17.42Q225.52-18.32 223.60-18.32L223.60-18.32Z M260.68-22.40Q264.52-22.40 266.84-19.92Q269.16-17.44 269.16-12.84L269.16-12.84L269.16 0L264.60 0L264.60-12.36Q264.60-15.32 263.08-16.94Q261.56-18.56 258.92-18.56L258.92-18.56Q256.20-18.56 254.56-16.82Q252.92-15.08 252.92-11.72L252.92-11.72L252.92 0L248.36 0L248.36-22.04L252.92-22.04L252.92-17.20Q253.80-19.68 255.88-21.04Q257.96-22.40 260.68-22.40L260.68-22.40Z M291.32-22.32Q294.32-22.32 296.44-20.84Q298.56-19.36 299.44-16.92L299.44-16.92L299.44-22.04L304-22.04L304 0L299.44 0L299.44-5.12Q298.56-2.68 296.44-1.20Q294.32 0.28 291.32 0.28L291.32 0.28Q288.44 0.28 286.18-1.08Q283.92-2.44 282.64-5Q281.36-7.56 281.36-11.04L281.36-11.04Q281.36-14.48 282.64-17.04Q283.92-19.60 286.18-20.96Q288.44-22.32 291.32-22.32L291.32-22.32ZM292.72-18.32Q289.68-18.32 287.86-16.38Q286.04-14.44 286.04-11.04L286.04-11.04Q286.04-7.64 287.86-5.70Q289.68-3.76 292.72-3.76L292.72-3.76Q294.64-3.76 296.16-4.66Q297.68-5.56 298.56-7.20Q299.44-8.84 299.44-11.04L299.44-11.04Q299.44-13.20 298.56-14.86Q297.68-16.52 296.16-17.42Q294.64-18.32 292.72-18.32L292.72-18.32Z M326.32-22.32Q329.32-22.32 331.44-20.84Q333.56-19.36 334.44-16.92L334.44-16.92L334.44-22.04L339-22.04L339 0.24Q339 3.32 337.74 5.70Q336.48 8.08 334.12 9.44Q331.76 10.80 328.52 10.80L328.52 10.80Q323.88 10.80 321.02 8.60Q318.16 6.40 317.44 2.64L317.44 2.64L321.96 2.64Q322.52 4.60 324.12 5.70Q325.72 6.80 328.20 6.80L328.20 6.80Q330.92 6.80 332.68 5.12Q334.44 3.44 334.44 0.24L334.44 0.24L334.44-5.12Q333.56-2.68 331.44-1.20Q329.32 0.28 326.32 0.28L326.32 0.28Q323.44 0.28 321.18-1.08Q318.92-2.44 317.64-5Q316.36-7.56 316.36-11.04L316.36-11.04Q316.36-14.48 317.64-17.04Q318.92-19.60 321.18-20.96Q323.44-22.32 326.32-22.32L326.32-22.32ZM327.72-18.32Q324.68-18.32 322.86-16.38Q321.04-14.44 321.04-11.04L321.04-11.04Q321.04-7.64 322.86-5.70Q324.68-3.76 327.72-3.76L327.72-3.76Q329.64-3.76 331.16-4.66Q332.68-5.56 333.56-7.20Q334.44-8.84 334.44-11.04L334.44-11.04Q334.44-13.20 333.56-14.86Q332.68-16.52 331.16-17.42Q329.64-18.32 327.72-18.32L327.72-18.32Z M372.96-12.08Q372.96-10.96 372.80-10.12L372.80-10.12L355.84-10.12Q355.96-6.72 357.72-5.08Q359.48-3.44 362.08-3.44L362.08-3.44Q364.36-3.44 365.94-4.60Q367.52-5.76 367.88-7.68L367.88-7.68L372.76-7.68Q372.32-5.36 370.92-3.56Q369.52-1.76 367.28-0.74Q365.04 0.28 362.28 0.28L362.28 0.28Q359.08 0.28 356.62-1.08Q354.16-2.44 352.76-5Q351.36-7.56 351.36-11.04L351.36-11.04Q351.36-14.48 352.76-17.04Q354.16-19.60 356.62-20.96Q359.08-22.32 362.28-22.32L362.28-22.32Q365.52-22.32 367.94-20.98Q370.36-19.64 371.66-17.30Q372.96-14.96 372.96-12.08L372.96-12.08ZM368.36-12.20Q368.44-14.36 367.62-15.82Q366.80-17.28 365.38-17.98Q363.96-18.68 362.28-18.68L362.28-18.68Q359.60-18.68 357.80-17.04Q356-15.40 355.84-12.20L355.84-12.20L368.36-12.20Z M412.92-22.40Q416.84-22.40 419.18-19.92Q421.52-17.44 421.52-12.84L421.52-12.84L421.52 0L416.96 0L416.96-12.36Q416.96-15.24 415.52-16.82Q414.08-18.40 411.56-18.40L411.56-18.40Q408.88-18.40 407.30-16.70Q405.72-15 405.72-11.72L405.72-11.72L405.72 0L401.16 0L401.16-12.36Q401.16-15.24 399.72-16.82Q398.28-18.40 395.76-18.40L395.76-18.40Q393.08-18.40 391.50-16.70Q389.92-15 389.92-11.72L389.92-11.72L389.92 0L385.36 0L385.36-22.04L389.92-22.04L389.92-17.44Q390.76-19.84 392.72-21.12Q394.68-22.40 397.32-22.40L397.32-22.40Q400.08-22.40 402.10-21.04Q404.12-19.68 405.04-17.12L405.04-17.12Q406-19.60 408.12-21Q410.24-22.40 412.92-22.40L412.92-22.40Z M455.32-12.08Q455.32-10.96 455.16-10.12L455.16-10.12L438.20-10.12Q438.32-6.72 440.08-5.08Q441.84-3.44 444.44-3.44L444.44-3.44Q446.72-3.44 448.30-4.60Q449.88-5.76 450.24-7.68L450.24-7.68L455.12-7.68Q454.68-5.36 453.28-3.56Q451.88-1.76 449.64-0.74Q447.40 0.28 444.64 0.28L444.64 0.28Q441.44 0.28 438.98-1.08Q436.52-2.44 435.12-5Q433.72-7.56 433.72-11.04L433.72-11.04Q433.72-14.48 435.12-17.04Q436.52-19.60 438.98-20.96Q441.44-22.32 444.64-22.32L444.64-22.32Q447.88-22.32 450.30-20.98Q452.72-19.64 454.02-17.30Q455.32-14.96 455.32-12.08L455.32-12.08ZM450.72-12.20Q450.80-14.36 449.98-15.82Q449.16-17.28 447.74-17.98Q446.32-18.68 444.64-18.68L444.64-18.68Q441.96-18.68 440.16-17.04Q438.36-15.40 438.20-12.20L438.20-12.20L450.72-12.20Z M480.04-22.40Q483.88-22.40 486.20-19.92Q488.52-17.44 488.52-12.84L488.52-12.84L488.52 0L483.96 0L483.96-12.36Q483.96-15.32 482.44-16.94Q480.92-18.56 478.28-18.56L478.28-18.56Q475.56-18.56 473.92-16.82Q472.28-15.08 472.28-11.72L472.28-11.72L472.28 0L467.72 0L467.72-22.04L472.28-22.04L472.28-17.20Q473.16-19.68 475.24-21.04Q477.32-22.40 480.04-22.40L480.04-22.40Z M510.72-3.96L512.92-3.96L512.92 0L510.12 0Q506.60 0 504.78-1.70Q502.96-3.40 502.96-7.36L502.96-7.36L502.96-18.16L499.80-18.16L499.80-22.04L502.96-22.04L502.96-27.52L507.56-27.52L507.56-22.04L512.88-22.04L512.88-18.16L507.56-18.16L507.56-7.28Q507.56-5.40 508.26-4.68Q508.96-3.96 510.72-3.96L510.72-3.96Z M561.12-7.52Q561.12-5.44 560.12-3.66Q559.12-1.88 557.08-0.80Q555.04 0.28 552.08 0.28L552.08 0.28Q549.20 0.28 546.92-0.74Q544.64-1.76 543.28-3.60Q541.92-5.44 541.72-7.84L541.72-7.84L546.60-7.84Q546.80-6 548.18-4.68Q549.56-3.36 551.88-3.36L551.88-3.36Q553.96-3.36 555.10-4.48Q556.24-5.60 556.24-7.36L556.24-7.36Q556.24-8.88 555.40-9.86Q554.56-10.84 553.32-11.40Q552.08-11.96 549.92-12.68L549.92-12.68Q547.28-13.52 545.62-14.36Q543.96-15.20 542.80-16.80Q541.64-18.40 541.64-21L541.64-21Q541.64-23.28 542.76-25Q543.88-26.72 545.96-27.66Q548.04-28.60 550.76-28.60L550.76-28.60Q555.08-28.60 557.62-26.52Q560.16-24.44 560.52-21.08L560.52-21.08L555.60-21.08Q555.32-22.68 554.10-23.82Q552.88-24.96 550.76-24.96L550.76-24.96Q548.84-24.96 547.68-23.98Q546.52-23 546.52-21.16L546.52-21.16Q546.52-19.72 547.32-18.78Q548.12-17.84 549.34-17.30Q550.56-16.76 552.68-16.04L552.68-16.04Q555.36-15.20 557.06-14.34Q558.76-13.48 559.94-11.84Q561.12-10.20 561.12-7.52L561.12-7.52Z M571.16-22.04L576.28-22.04L582.88-5.84L589.00-22.04L594.08-22.04L580.76 10.48L575.68 10.48L580.44-0.52L571.16-22.04Z M612.32-22.32Q616.20-22.32 618.54-20.34Q620.88-18.36 621.40-15.04L621.40-15.04L617.08-15.04Q616.80-16.84 615.54-17.94Q614.28-19.04 612.20-19.04L612.20-19.04Q610.48-19.04 609.54-18.22Q608.60-17.40 608.60-16L608.60-16Q608.60-14.96 609.28-14.32Q609.96-13.68 610.98-13.32Q612-12.96 613.88-12.52L613.88-12.52Q616.36-11.96 617.90-11.36Q619.44-10.76 620.54-9.46Q621.64-8.16 621.64-5.92L621.64-5.92Q621.64-3.16 619.54-1.44Q617.44 0.28 613.88 0.28L613.88 0.28Q609.76 0.28 607.22-1.64Q604.68-3.56 604.16-7L604.16-7L608.60-7Q608.80-5.20 610.20-4.08Q611.60-2.96 613.88-2.96L613.88-2.96Q615.52-2.96 616.46-3.82Q617.40-4.68 617.40-6L617.40-6Q617.40-7.16 616.68-7.84Q615.96-8.52 614.88-8.90Q613.80-9.28 611.92-9.68L611.92-9.68Q609.52-10.24 608.02-10.80Q606.52-11.36 605.46-12.62Q604.40-13.88 604.40-16.04L604.40-16.04Q604.40-18.84 606.50-20.58Q608.60-22.32 612.32-22.32L612.32-22.32Z M643.08-3.96L645.28-3.96L645.28 0L642.48 0Q638.96 0 637.14-1.70Q635.32-3.40 635.32-7.36L635.32-7.36L635.32-18.16L632.16-18.16L632.16-22.04L635.32-22.04L635.32-27.52L639.92-27.52L639.92-22.04L645.24-22.04L645.24-18.16L639.92-18.16L639.92-7.28Q639.92-5.40 640.62-4.68Q641.32-3.96 643.08-3.96L643.08-3.96Z M678.04-12.08Q678.04-10.96 677.88-10.12L677.88-10.12L660.92-10.12Q661.04-6.72 662.80-5.08Q664.56-3.44 667.16-3.44L667.16-3.44Q669.44-3.44 671.02-4.60Q672.60-5.76 672.96-7.68L672.96-7.68L677.84-7.68Q677.40-5.36 676.00-3.56Q674.60-1.76 672.36-0.74Q670.12 0.28 667.36 0.28L667.36 0.28Q664.16 0.28 661.70-1.08Q659.24-2.44 657.84-5Q656.44-7.56 656.44-11.04L656.44-11.04Q656.44-14.48 657.84-17.04Q659.24-19.60 661.70-20.96Q664.16-22.32 667.36-22.32L667.36-22.32Q670.60-22.32 673.02-20.98Q675.44-19.64 676.74-17.30Q678.04-14.96 678.04-12.08L678.04-12.08ZM673.44-12.20Q673.52-14.36 672.70-15.82Q671.88-17.28 670.46-17.98Q669.04-18.68 667.36-18.68L667.36-18.68Q664.68-18.68 662.88-17.04Q661.08-15.40 660.92-12.20L660.92-12.20L673.44-12.20Z M718.00-22.40Q721.92-22.40 724.26-19.92Q726.60-17.44 726.60-12.84L726.60-12.84L726.60 0L722.04 0L722.04-12.36Q722.04-15.24 720.60-16.82Q719.16-18.40 716.64-18.40L716.64-18.40Q713.96-18.40 712.38-16.70Q710.80-15 710.80-11.72L710.80-11.72L710.80 0L706.24 0L706.24-12.36Q706.24-15.24 704.80-16.82Q703.36-18.40 700.84-18.40L700.84-18.40Q698.16-18.40 696.58-16.70Q695.00-15 695.00-11.72L695.00-11.72L695.00 0L690.44 0L690.44-22.04L695.00-22.04L695.00-17.44Q695.84-19.84 697.80-21.12Q699.76-22.40 702.40-22.40L702.40-22.40Q705.16-22.40 707.18-21.04Q709.20-19.68 710.12-17.12L710.12-17.12Q711.08-19.60 713.20-21Q715.32-22.40 718.00-22.40L718.00-22.40Z"/></g>
</svg>
</g><g opacity="1" transform="rotate(0 611.6237 647.0102)">
<svg width="382.2366" height="120" x="611.6237" y="647.0102" version="1.1" preserveAspectRatio="none" viewBox="1.6 -18.48 60.4 18.96">
  <g transform="matrix(1 0 0 1 0 0)" class="companyName"><path id="id-D6z1nYkh3" d="M11.40 0.48L11.40 0.48L11.04 0.48Q7.24 0.48 4.42-2.38Q1.60-5.24 1.60-9.04Q1.60-12.84 4.40-15.62Q7.20-18.40 11.32-18.40Q15.44-18.40 18.40-15.12L18.40-15.12L5.84-2.72Q8.44-0.64 10.84-0.64Q13.24-0.64 15.14-1.74Q17.04-2.84 18.28-4.68L18.28-4.68L18.28-2.64Q15.44 0.48 11.40 0.48ZM10.98-17.28Q7.80-17.28 5.34-14.82Q2.88-12.36 2.88-9.16Q2.88-5.96 5-3.56L5-3.56L16.64-15.12Q14.16-17.28 10.98-17.28Z M34.68-14.20Q35.28-16.12 36.98-17.28Q38.68-18.44 41.12-18.44Q43.56-18.44 45.40-16.68Q47.24-14.92 47.24-11.92L47.24-11.92L47.24 0L45.96 0L45.96-11.92Q45.96-14.24 44.44-15.78Q42.92-17.32 40.78-17.32Q38.64-17.32 36.98-15.72Q35.32-14.12 35.32-12L35.32-12L35.32 0L34.04 0L34.04-12Q34.04-14.16 32.52-15.74Q31-17.32 28.84-17.32Q26.68-17.32 25.08-15.72Q23.48-14.12 23.48-12L23.48-12L23.48 0L22.20 0L22.20-18L23.48-18L23.48-15.48Q24.28-16.68 25.86-17.56Q27.44-18.44 29.14-18.44Q30.84-18.44 32.40-17.26Q33.96-16.08 34.68-14.20L34.68-14.20Z M55.96-17.36L55.96-17.36Q54.92-17.36 54.12-16.68Q53.32-16 53.32-15Q53.32-14 54.22-13.16Q55.12-12.32 56.38-11.62Q57.64-10.92 58.92-10.12Q60.20-9.32 61.10-8.08Q62-6.84 62-5.24L62-5.24Q62-2.88 60.22-1.22Q58.44 0.44 55.92 0.44L55.92 0.44Q54.32 0.44 52.94-0.26Q51.56-0.96 50.92-2.12L50.92-2.12L50.92-4.04Q52.44-0.68 55.80-0.68L55.80-0.68Q57.88-0.68 59.30-1.96Q60.72-3.24 60.72-4.82Q60.72-6.40 59.82-7.48Q58.92-8.56 57.64-9.32Q56.36-10.08 55.10-10.82Q53.84-11.56 52.94-12.62Q52.04-13.68 52.04-15.10Q52.04-16.52 53.18-17.50Q54.32-18.48 56.12-18.48Q57.92-18.48 59.20-17.08L59.20-17.08L59.20-15.44Q57.92-17.36 55.96-17.36Z"/></g>
</svg>
</g></svg></svg>