<svg version="1.1" preserveAspectRatio="none" xmlns="http://www.w3.org/2000/svg" width="500" height="500" viewBox="0 0 500 500"><rect width="100%" height="100%" fill="#1A244D" fill-opacity="1"/><svg viewBox="2601.2677 2116.3155 592.8529 234" width="333" height="131.43563943096171" x="83.5px" y="184.2822px" xmlns="http://www.w3.org/2000/svg" xmlns:xlink="http://www.w3.org/1999/xlink" preserveAspectRatio="none"><defs></defs><style>.background {fill:#1A244D;fill-opacity:1;}.icon1 {fill:#FFCC57;fill-opacity:1;}.icon1-str {stroke:#FFCC57;stroke-opacity:1;}.icon2 {fill:#3EA0C0;fill-opacity:1;}.icon3 {fill:#0AF9FF;fill-opacity:0.95;}.icon3-str {stroke:#0AF9FF;stroke-opacity:0.95;}</style><g opacity="1" transform="rotate(0 2777.2674 2116.3155)">
<svg width="416.8532" height="180" x="2777.2674" y="2116.3155" version="1.1" preserveAspectRatio="none" viewBox="0 0 416.8532 180">
  <defs><rect x="0" y="0" width="416.8532" height="180" rx="0px" ry="0px" id="id-B7crM0kCi1679219399842"></rect></defs><use class="icon1 icon3-str" style="stroke-width:0;" xlink:href="#id-B7crM0kCi1679219399842"></use>
</svg>
</g><g opacity="1" transform="rotate(0 2699.5647 2326.3155)">
<svg width="396.2589" height="24" x="2699.5647" y="2326.3155" version="1.1" preserveAspectRatio="none" viewBox="4.2 -28.32 599.68 36.32">
  <g transform="matrix(1 0 0 1 0 0)" class="icon1"><path id="id-6izo4zJp23" d="M8.20-3.48L24.52-3.48L24.52 0L4.20 0L4.20-28L23.96-28L23.96-24.52L8.20-24.52L8.20-15.92L22.24-15.92L22.24-12.52L8.20-12.52L8.20-3.48Z M47.08-21.20L50.84-21.20L41.56 0L37.64 0L28.36-21.20L32.36-21.20L39.64-4.20L47.08-21.20Z M75-10.48Q75-10.04 74.92-9.32L74.92-9.32L57.72-9.32Q58.08-6.52 60.18-4.82Q62.28-3.12 65.40-3.12L65.40-3.12Q69.20-3.12 71.52-5.68L71.52-5.68L73.64-3.20Q72.20-1.52 70.06-0.64Q67.92 0.24 65.28 0.24L65.28 0.24Q61.92 0.24 59.32-1.14Q56.72-2.52 55.30-5Q53.88-7.48 53.88-10.60L53.88-10.60Q53.88-13.68 55.26-16.16Q56.64-18.64 59.06-20.02Q61.48-21.40 64.52-21.40L64.52-21.40Q67.56-21.40 69.94-20.02Q72.32-18.64 73.66-16.16Q75-13.68 75-10.48L75-10.48ZM64.52-18.16Q61.76-18.16 59.90-16.48Q58.04-14.80 57.72-12.08L57.72-12.08L71.32-12.08Q71-14.76 69.14-16.46Q67.28-18.16 64.52-18.16L64.52-18.16Z M93.64-21.40Q97.68-21.40 100.06-19.06Q102.44-16.72 102.44-12.20L102.44-12.20L102.44 0L98.60 0L98.60-11.76Q98.60-14.84 97.12-16.40Q95.64-17.96 92.88-17.96L92.88-17.96Q89.76-17.96 87.96-16.14Q86.16-14.32 86.16-10.92L86.16-10.92L86.16 0L82.32 0L82.32-21.20L86-21.20L86-18Q87.16-19.64 89.14-20.52Q91.12-21.40 93.64-21.40L93.64-21.40Z M122.28-4L123.48-1.24Q122.64-0.52 121.40-0.14Q120.16 0.24 118.84 0.24L118.84 0.24Q115.64 0.24 113.88-1.48Q112.12-3.20 112.12-6.40L112.12-6.40L112.12-18.04L108.52-18.04L108.52-21.20L112.12-21.20L112.12-25.84L115.96-25.84L115.96-21.20L122.04-21.20L122.04-18.04L115.96-18.04L115.96-6.56Q115.96-4.84 116.82-3.92Q117.68-3 119.28-3L119.28-3Q121.04-3 122.28-4L122.28-4Z M173.24 0L169.40 0L169.36-20.40L159.24-3.40L157.40-3.40L147.28-20.28L147.28 0L143.44 0L143.44-28L146.72-28L158.40-8.32L169.92-28L173.20-28L173.24 0Z M190.80-21.40Q195.20-21.40 197.54-19.24Q199.88-17.08 199.88-12.80L199.88-12.80L199.88 0L196.24 0L196.24-2.80Q195.28-1.32 193.50-0.54Q191.72 0.24 189.28 0.24L189.28 0.24Q185.72 0.24 183.58-1.48Q181.44-3.20 181.44-6L181.44-6Q181.44-8.80 183.48-10.50Q185.52-12.20 189.96-12.20L189.96-12.20L196.04-12.20L196.04-12.96Q196.04-15.44 194.60-16.76Q193.16-18.08 190.36-18.08L190.36-18.08Q188.48-18.08 186.68-17.46Q184.88-16.84 183.64-15.80L183.64-15.80L182.04-18.68Q183.68-20 185.96-20.70Q188.24-21.40 190.80-21.40L190.80-21.40ZM189.92-2.72Q192.12-2.72 193.72-3.70Q195.32-4.68 196.04-6.48L196.04-6.48L196.04-9.44L190.12-9.44Q185.24-9.44 185.24-6.16L185.24-6.16Q185.24-4.56 186.48-3.64Q187.72-2.72 189.92-2.72L189.92-2.72Z M220.32-21.40Q224.36-21.40 226.74-19.06Q229.12-16.72 229.12-12.20L229.12-12.20L229.12 0L225.28 0L225.28-11.76Q225.28-14.84 223.80-16.40Q222.32-17.96 219.56-17.96L219.56-17.96Q216.44-17.96 214.64-16.14Q212.84-14.32 212.84-10.92L212.84-10.92L212.84 0L209 0L209-21.20L212.68-21.20L212.68-18Q213.84-19.64 215.82-20.52Q217.80-21.40 220.32-21.40L220.32-21.40Z M245.96-21.40Q250.36-21.40 252.70-19.24Q255.04-17.08 255.04-12.80L255.04-12.80L255.04 0L251.40 0L251.40-2.80Q250.44-1.32 248.66-0.54Q246.88 0.24 244.44 0.24L244.44 0.24Q240.88 0.24 238.74-1.48Q236.60-3.20 236.60-6L236.60-6Q236.60-8.80 238.64-10.50Q240.68-12.20 245.12-12.20L245.12-12.20L251.20-12.20L251.20-12.96Q251.20-15.44 249.76-16.76Q248.32-18.08 245.52-18.08L245.52-18.08Q243.64-18.08 241.84-17.46Q240.04-16.84 238.80-15.80L238.80-15.80L237.20-18.68Q238.84-20 241.12-20.70Q243.40-21.40 245.96-21.40L245.96-21.40ZM245.08-2.72Q247.28-2.72 248.88-3.70Q250.48-4.68 251.20-6.48L251.20-6.48L251.20-9.44L245.28-9.44Q240.40-9.44 240.40-6.16L240.40-6.16Q240.40-4.56 241.64-3.64Q242.88-2.72 245.08-2.72L245.08-2.72Z M280.92-21.20L284.56-21.20L284.56-2.88Q284.56 2.68 281.80 5.34Q279.04 8 273.56 8L273.56 8Q270.56 8 267.84 7.18Q265.12 6.36 263.44 4.84L263.44 4.84L265.28 1.88Q266.76 3.16 268.94 3.90Q271.12 4.64 273.44 4.64L273.44 4.64Q277.16 4.64 278.94 2.88Q280.72 1.12 280.72-2.48L280.72-2.48L280.72-4.16Q279.36-2.52 277.38-1.70Q275.40-0.88 273.08-0.88L273.08-0.88Q270.04-0.88 267.58-2.18Q265.12-3.48 263.72-5.82Q262.32-8.16 262.32-11.16L262.32-11.16Q262.32-14.16 263.72-16.50Q265.12-18.84 267.58-20.12Q270.04-21.40 273.08-21.40L273.08-21.40Q275.48-21.40 277.54-20.52Q279.60-19.64 280.92-17.92L280.92-17.92L280.92-21.20ZM273.52-4.24Q275.60-4.24 277.26-5.12Q278.92-6 279.86-7.58Q280.80-9.16 280.80-11.16L280.80-11.16Q280.80-14.24 278.76-16.14Q276.72-18.04 273.52-18.04L273.52-18.04Q270.28-18.04 268.24-16.14Q266.20-14.24 266.20-11.16L266.20-11.16Q266.20-9.16 267.14-7.58Q268.08-6 269.74-5.12Q271.40-4.24 273.52-4.24L273.52-4.24Z M313.04-10.48Q313.04-10.04 312.96-9.32L312.96-9.32L295.76-9.32Q296.12-6.52 298.22-4.82Q300.32-3.12 303.44-3.12L303.44-3.12Q307.24-3.12 309.56-5.68L309.56-5.68L311.68-3.20Q310.24-1.52 308.10-0.64Q305.96 0.24 303.32 0.24L303.32 0.24Q299.96 0.24 297.36-1.14Q294.76-2.52 293.34-5Q291.92-7.48 291.92-10.60L291.92-10.60Q291.92-13.68 293.30-16.16Q294.68-18.64 297.10-20.02Q299.52-21.40 302.56-21.40L302.56-21.40Q305.60-21.40 307.98-20.02Q310.36-18.64 311.70-16.16Q313.04-13.68 313.04-10.48L313.04-10.48ZM302.56-18.16Q299.80-18.16 297.94-16.48Q296.08-14.80 295.76-12.08L295.76-12.08L309.36-12.08Q309.04-14.76 307.18-16.46Q305.32-18.16 302.56-18.16L302.56-18.16Z M346.88-21.40Q350.88-21.40 353.22-19.08Q355.56-16.76 355.56-12.20L355.56-12.20L355.56 0L351.72 0L351.72-11.76Q351.72-14.84 350.30-16.40Q348.88-17.96 346.24-17.96L346.24-17.96Q343.32-17.96 341.60-16.14Q339.88-14.32 339.88-10.92L339.88-10.92L339.88 0L336.04 0L336.04-11.76Q336.04-14.84 334.62-16.40Q333.20-17.96 330.56-17.96L330.56-17.96Q327.64-17.96 325.92-16.14Q324.20-14.32 324.20-10.92L324.20-10.92L324.20 0L320.36 0L320.36-21.20L324.04-21.20L324.04-18.04Q325.20-19.68 327.08-20.54Q328.96-21.40 331.36-21.40L331.36-21.40Q333.84-21.40 335.76-20.40Q337.68-19.40 338.72-17.48L338.72-17.48Q339.92-19.32 342.06-20.36Q344.20-21.40 346.88-21.40L346.88-21.40Z M383.92-10.48Q383.92-10.04 383.84-9.32L383.84-9.32L366.64-9.32Q367.00-6.52 369.10-4.82Q371.20-3.12 374.32-3.12L374.32-3.12Q378.12-3.12 380.44-5.68L380.44-5.68L382.56-3.20Q381.12-1.52 378.98-0.64Q376.84 0.24 374.20 0.24L374.20 0.24Q370.84 0.24 368.24-1.14Q365.64-2.52 364.22-5Q362.80-7.48 362.80-10.60L362.80-10.60Q362.80-13.68 364.18-16.16Q365.56-18.64 367.98-20.02Q370.40-21.40 373.44-21.40L373.44-21.40Q376.48-21.40 378.86-20.02Q381.24-18.64 382.58-16.16Q383.92-13.68 383.92-10.48L383.92-10.48ZM373.44-18.16Q370.68-18.16 368.82-16.48Q366.96-14.80 366.64-12.08L366.64-12.08L380.24-12.08Q379.92-14.76 378.06-16.46Q376.20-18.16 373.44-18.16L373.44-18.16Z M402.56-21.40Q406.60-21.40 408.98-19.06Q411.36-16.72 411.36-12.20L411.36-12.20L411.36 0L407.52 0L407.52-11.76Q407.52-14.84 406.04-16.40Q404.56-17.96 401.80-17.96L401.80-17.96Q398.68-17.96 396.88-16.14Q395.08-14.32 395.08-10.92L395.08-10.92L395.08 0L391.24 0L391.24-21.20L394.92-21.20L394.92-18Q396.08-19.64 398.06-20.52Q400.04-21.40 402.56-21.40L402.56-21.40Z M431.20-4L432.40-1.24Q431.56-0.52 430.32-0.14Q429.08 0.24 427.76 0.24L427.76 0.24Q424.56 0.24 422.80-1.48Q421.04-3.20 421.04-6.40L421.04-6.40L421.04-18.04L417.44-18.04L417.44-21.20L421.04-21.20L421.04-25.84L424.88-25.84L424.88-21.20L430.96-21.20L430.96-18.04L424.88-18.04L424.88-6.56Q424.88-4.84 425.74-3.92Q426.60-3 428.20-3L428.20-3Q429.96-3 431.20-4L431.20-4Z M460.52 0.32Q457.36 0.32 454.42-0.66Q451.48-1.64 449.80-3.20L449.80-3.20L451.28-6.32Q452.88-4.88 455.38-3.98Q457.88-3.08 460.52-3.08L460.52-3.08Q464.00-3.08 465.72-4.26Q467.44-5.44 467.44-7.40L467.44-7.40Q467.44-8.84 466.50-9.74Q465.56-10.64 464.18-11.12Q462.80-11.60 460.28-12.20L460.28-12.20Q457.12-12.96 455.18-13.72Q453.24-14.48 451.86-16.06Q450.48-17.64 450.48-20.32L450.48-20.32Q450.48-22.56 451.66-24.36Q452.84-26.16 455.24-27.24Q457.64-28.32 461.20-28.32L461.20-28.32Q463.68-28.32 466.08-27.68Q468.48-27.04 470.20-25.84L470.20-25.84L468.88-22.64Q467.12-23.76 465.12-24.34Q463.12-24.92 461.20-24.92L461.20-24.92Q457.80-24.92 456.10-23.68Q454.40-22.44 454.40-20.48L454.40-20.48Q454.40-19.04 455.36-18.14Q456.32-17.24 457.74-16.74Q459.16-16.24 461.60-15.68L461.60-15.68Q464.76-14.92 466.68-14.16Q468.60-13.40 469.98-11.84Q471.36-10.28 471.36-7.64L471.36-7.64Q471.36-5.44 470.16-3.62Q468.96-1.80 466.52-0.74Q464.08 0.32 460.52 0.32L460.52 0.32Z M493.24-21.20L497.00-21.20L486.72 2.12Q485.36 5.36 483.54 6.68Q481.72 8 479.16 8L479.16 8Q477.60 8 476.14 7.50Q474.68 7 473.72 6.04L473.72 6.04L475.36 3.16Q477.00 4.72 479.16 4.72L479.16 4.72Q480.56 4.72 481.50 3.98Q482.44 3.24 483.20 1.44L483.20 1.44L483.88-0.04L474.52-21.20L478.52-21.20L485.92-4.24L493.24-21.20Z M508.40 0.24Q505.80 0.24 503.40-0.46Q501.00-1.16 499.64-2.24L499.64-2.24L501.24-5.28Q502.64-4.28 504.64-3.68Q506.64-3.08 508.68-3.08L508.68-3.08Q513.72-3.08 513.72-5.96L513.72-5.96Q513.72-6.92 513.04-7.48Q512.36-8.04 511.34-8.30Q510.32-8.56 508.44-8.88L508.44-8.88Q505.88-9.28 504.26-9.80Q502.64-10.32 501.48-11.56Q500.32-12.80 500.32-15.04L500.32-15.04Q500.32-17.92 502.72-19.66Q505.12-21.40 509.16-21.40L509.16-21.40Q511.28-21.40 513.40-20.88Q515.52-20.36 516.88-19.48L516.88-19.48L515.24-16.44Q512.64-18.12 509.12-18.12L509.12-18.12Q506.68-18.12 505.40-17.32Q504.12-16.52 504.12-15.20L504.12-15.20Q504.12-14.16 504.84-13.56Q505.56-12.96 506.62-12.68Q507.68-12.40 509.60-12.04L509.60-12.04Q512.16-11.60 513.74-11.10Q515.32-10.60 516.44-9.40Q517.56-8.20 517.56-6.04L517.56-6.04Q517.56-3.16 515.10-1.46Q512.64 0.24 508.40 0.24L508.40 0.24Z M535.08-4L536.28-1.24Q535.44-0.52 534.20-0.14Q532.96 0.24 531.64 0.24L531.64 0.24Q528.44 0.24 526.68-1.48Q524.92-3.20 524.92-6.40L524.92-6.40L524.92-18.04L521.32-18.04L521.32-21.20L524.92-21.20L524.92-25.84L528.76-25.84L528.76-21.20L534.84-21.20L534.84-18.04L528.76-18.04L528.76-6.56Q528.76-4.84 529.62-3.92Q530.48-3 532.08-3L532.08-3Q533.84-3 535.08-4L535.08-4Z M561.36-10.48Q561.36-10.04 561.28-9.32L561.28-9.32L544.08-9.32Q544.44-6.52 546.54-4.82Q548.64-3.12 551.76-3.12L551.76-3.12Q555.56-3.12 557.88-5.68L557.88-5.68L560.00-3.20Q558.56-1.52 556.42-0.64Q554.28 0.24 551.64 0.24L551.64 0.24Q548.28 0.24 545.68-1.14Q543.08-2.52 541.66-5Q540.24-7.48 540.24-10.60L540.24-10.60Q540.24-13.68 541.62-16.16Q543.00-18.64 545.42-20.02Q547.84-21.40 550.88-21.40L550.88-21.40Q553.92-21.40 556.30-20.02Q558.68-18.64 560.02-16.16Q561.36-13.68 561.36-10.48L561.36-10.48ZM550.88-18.16Q548.12-18.16 546.26-16.48Q544.40-14.80 544.08-12.08L544.08-12.08L557.68-12.08Q557.36-14.76 555.50-16.46Q553.64-18.16 550.88-18.16L550.88-18.16Z M595.20-21.40Q599.20-21.40 601.54-19.08Q603.88-16.76 603.88-12.20L603.88-12.20L603.88 0L600.04 0L600.04-11.76Q600.04-14.84 598.62-16.40Q597.20-17.96 594.56-17.96L594.56-17.96Q591.64-17.96 589.92-16.14Q588.20-14.32 588.20-10.92L588.20-10.92L588.20 0L584.36 0L584.36-11.76Q584.36-14.84 582.94-16.40Q581.52-17.96 578.88-17.96L578.88-17.96Q575.96-17.96 574.24-16.14Q572.52-14.32 572.52-10.92L572.52-10.92L572.52 0L568.68 0L568.68-21.20L572.36-21.20L572.36-18.04Q573.52-19.68 575.40-20.54Q577.28-21.40 579.68-21.40L579.68-21.40Q582.16-21.40 584.08-20.40Q586.00-19.40 587.04-17.48L587.04-17.48Q588.24-19.32 590.38-20.36Q592.52-21.40 595.20-21.40L595.20-21.40Z"/></g>
</svg>
</g><g opacity="1" transform="rotate(0 2807.2674 2146.3155)">
<svg width="356.8532" height="120" x="2807.2674" y="2146.3155" version="1.1" preserveAspectRatio="none" viewBox="3.32 -28.48 86.12 28.96">
  <g transform="matrix(1 0 0 1 0 0)" class="background"><path id="id-D6z1nYkh3" d="M9.76-5.20L25-5.20L25 0L3.32 0L3.32-28L24.48-28L24.48-22.80L9.76-22.80L9.76-16.72L22.76-16.72L22.76-11.68L9.76-11.68L9.76-5.20Z M61.72 0L55.64 0L55.60-16.80L47.36-2.96L44.44-2.96L36.24-16.44L36.24 0L30.16 0L30.16-28L35.52-28L46-10.60L56.32-28L61.64-28L61.72 0Z M77.56 0.48Q74.24 0.48 71.14-0.42Q68.04-1.32 66.16-2.76L66.16-2.76L68.36-7.64Q70.16-6.32 72.64-5.52Q75.12-4.72 77.60-4.72L77.60-4.72Q80.36-4.72 81.68-5.54Q83-6.36 83-7.72L83-7.72Q83-8.72 82.22-9.38Q81.44-10.04 80.22-10.44Q79-10.84 76.92-11.32L76.92-11.32Q73.72-12.08 71.68-12.84Q69.64-13.60 68.18-15.28Q66.72-16.96 66.72-19.76L66.72-19.76Q66.72-22.20 68.04-24.18Q69.36-26.16 72.02-27.32Q74.68-28.48 78.52-28.48L78.52-28.48Q81.20-28.48 83.76-27.84Q86.32-27.20 88.24-26L88.24-26L86.24-21.08Q82.36-23.28 78.48-23.28L78.48-23.28Q75.76-23.28 74.46-22.40Q73.16-21.52 73.16-20.08L73.16-20.08Q73.16-18.64 74.66-17.94Q76.16-17.24 79.24-16.56L79.24-16.56Q82.44-15.80 84.48-15.04Q86.52-14.28 87.98-12.64Q89.44-11 89.44-8.20L89.44-8.20Q89.44-5.80 88.10-3.82Q86.76-1.84 84.08-0.68Q81.40 0.48 77.56 0.48L77.56 0.48Z"/></g>
</svg>
</g><g opacity="1" transform="rotate(0 2601.2677 2116.3155)">
<svg width="179.9997" height="180" x="2601.2677" y="2116.3155" version="1.1" preserveAspectRatio="none" viewBox="0 0 179.9997 180">
  <defs><rect x="3.5999939999999997" y="3.5999939999999997" width="172.799712" height="172.800012" rx="0px" ry="0px" id="id-tBXipXk0b1679219399842"></rect></defs><use class="background icon1-str" style="stroke-width:7.199987999999999;" xlink:href="#id-tBXipXk0b1679219399842"></use>
</svg>
</g><g opacity="1" transform="rotate(0 2631.0853 2146.3155)">
<svg width="120.3645" height="120" x="2631.0853" y="2146.3155" version="1.1" preserveAspectRatio="none" viewBox="10.045472145080566 9.999678611755371 80.34465789794922 80.10132598876953">
  <g transform="matrix(1 0 0 1 0 0)" class="icon1"><path d="M25.093,41.229l1.756,3.211c0.175,0.32,0.512,0.52,0.877,0.52s0.702-0.199,0.877-0.52l1.756-3.211  c1.66-3.036,4.143-5.519,7.18-7.18l3.211-1.756c0.32-0.175,0.52-0.512,0.52-0.877c0-0.365-0.199-0.702-0.52-0.877l-3.211-1.756  c-3.037-1.661-5.52-4.143-7.18-7.179l-1.756-3.211c-0.351-0.642-1.404-0.641-1.755,0l-1.756,3.211  c-1.661,3.037-4.144,5.519-7.18,7.179l-3.211,1.756c-0.321,0.175-0.52,0.512-0.52,0.877c0,0.366,0.2,0.702,0.52,0.877l3.211,1.756  C20.949,35.71,23.432,38.193,25.093,41.229z M17.266,31.417l1.607-0.879c3.372-1.844,6.129-4.602,7.975-7.975l0.878-1.606  l0.879,1.607c1.844,3.372,4.602,6.129,7.975,7.974l1.607,0.879l-1.607,0.878c-3.373,1.845-6.13,4.603-7.975,7.975l-0.879,1.607  l-0.878-1.607c-1.845-3.372-4.603-6.13-7.975-7.975L17.266,31.417z"></path><path d="M78.27,82.548c0.321-0.176,0.52-0.512,0.52-0.877c0-0.366-0.2-0.702-0.52-0.877l-1.86-1.017  c-1.688-0.923-3.067-2.303-3.991-3.991l-1.017-1.86c-0.351-0.641-1.404-0.641-1.755,0l-1.017,1.86  c-0.923,1.688-2.303,3.068-3.991,3.991l-1.86,1.017c-0.32,0.175-0.52,0.512-0.52,0.877c0,0.365,0.199,0.702,0.52,0.877l1.86,1.018  c1.688,0.922,3.067,2.303,3.991,3.991l1.017,1.86c0.175,0.32,0.512,0.52,0.877,0.52s0.702-0.2,0.877-0.52l1.017-1.86  c0.923-1.688,2.303-3.068,3.991-3.991L78.27,82.548z M75.45,81.811c-2.023,1.106-3.678,2.762-4.786,4.786l-0.14,0.256l-0.14-0.256  c-1.107-2.024-2.762-3.679-4.786-4.786l-0.256-0.14l0.255-0.14c2.024-1.106,3.679-2.761,4.787-4.786l0.14-0.256l0.14,0.256  c1.107,2.024,2.762,3.679,4.786,4.786l0.256,0.14L75.45,81.811z"></path><path d="M43.472,18.778c0.552,0,1-0.448,1-1v-2.202h2.202c0.552,0,1-0.448,1-1s-0.448-1-1-1h-2.202v-2.202c0-0.552-0.448-1-1-1  s-1,0.448-1,1v2.202h-2.202c-0.552,0-1,0.448-1,1s0.448,1,1,1h2.202v2.202C42.472,18.33,42.92,18.778,43.472,18.778z"></path><path d="M14.622,54.64c0.552,0,1-0.448,1-1v-2.202h2.202c0.552,0,1-0.448,1-1s-0.448-1-1-1h-2.202v-2.202c0-0.552-0.448-1-1-1  s-1,0.448-1,1v2.202H11.42c-0.552,0-1,0.448-1,1s0.448,1,1,1h2.202v2.202C13.622,54.192,14.07,54.64,14.622,54.64z"></path><path d="M14.333,19.143c0.099,0.006,0.197,0.009,0.295,0.009c1.113,0,2.176-0.4,3.019-1.142c0.917-0.808,1.465-1.925,1.542-3.145  c0.077-1.22-0.325-2.396-1.133-3.314c-0.808-0.917-1.924-1.465-3.145-1.542c-1.211-0.077-2.396,0.325-3.314,1.133  c-0.917,0.808-1.465,1.925-1.542,3.145c-0.078,1.22,0.325,2.396,1.133,3.314C11.996,18.518,13.112,19.066,14.333,19.143z   M12.919,12.643C13.394,12.225,13.992,12,14.618,12c0.055,0,0.111,0.001,0.167,0.005c0.687,0.043,1.315,0.352,1.77,0.868  c0.455,0.516,0.682,1.179,0.638,1.865c-0.043,0.687-0.352,1.315-0.869,1.771c-0.517,0.455-1.184,0.677-1.865,0.638  c-0.687-0.043-1.315-0.352-1.77-0.868c-0.455-0.516-0.682-1.179-0.638-1.865C12.095,13.727,12.403,13.098,12.919,12.643z"></path><path d="M82.791,62.757c-1.893,1.668-2.077,4.565-0.409,6.459c0.903,1.025,2.167,1.549,3.437,1.549c1.075,0,2.154-0.375,3.022-1.14  c1.893-1.668,2.077-4.565,0.409-6.459C87.582,61.273,84.685,61.089,82.791,62.757z M87.519,68.125  c-1.066,0.938-2.698,0.835-3.636-0.23c-0.939-1.066-0.835-2.697,0.23-3.636c1.064-0.939,2.696-0.836,3.636,0.23  C88.688,65.555,88.584,67.186,87.519,68.125z"></path><path d="M51.809,72.816c-0.552,0-1,0.448-1,1v2.202h-2.202c-0.552,0-1,0.448-1,1s0.448,1,1,1h2.202v2.202c0,0.552,0.448,1,1,1  s1-0.448,1-1v-2.202h2.202c0.552,0,1-0.448,1-1s-0.448-1-1-1h-2.202v-2.202C52.809,73.264,52.361,72.816,51.809,72.816z"></path><path d="M81.582,53.664c0.552,0,1-0.448,1-1s-0.448-1-1-1h-2.202v-2.202c0-0.552-0.448-1-1-1s-1,0.448-1,1v2.202h-2.202  c-0.552,0-1,0.448-1,1s0.448,1,1,1h2.202v2.202c0,0.552,0.448,1,1,1s1-0.448,1-1v-2.202H81.582z"></path><path d="M13.747,89.246c0.571,0.571,1.323,0.855,2.069,0.855c0.736,0,1.466-0.275,2.013-0.822L31.47,76.862  c0.718,0.555,1.576,0.852,2.446,0.852c0.945,0,1.892-0.331,2.649-0.998L53.55,61.759c0.423,0.55,0.809,1.131,1.146,1.747  l1.327,2.426c0.175,0.321,0.512,0.52,0.877,0.52s0.702-0.199,0.877-0.52l1.327-2.426c1.232-2.252,3.074-4.094,5.326-5.326  l2.426-1.327c0.321-0.175,0.52-0.512,0.52-0.877s-0.199-0.702-0.52-0.877l-2.426-1.327c-0.367-0.201-0.719-0.424-1.064-0.656  l14.101-12.417c0.208-0.183,0.33-0.443,0.339-0.719s-0.097-0.543-0.292-0.739L60.903,22.63c-0.196-0.196-0.468-0.312-0.739-0.292  c-0.276,0.009-0.536,0.131-0.719,0.339L23.429,63.58c-1.282,1.455-1.306,3.599-0.148,5.096L10.898,82.282  c-1.135,1.135-1.135,2.981,0,4.116L13.747,89.246z M64.292,55.976l-0.822,0.449c-2.588,1.416-4.705,3.533-6.121,6.121L56.9,63.368  l-0.449-0.822c-1.416-2.588-3.532-4.705-6.121-6.121l-0.822-0.449l0.822-0.449c2.588-1.416,4.705-3.532,6.121-6.121l0.449-0.822  l0.449,0.822c1.416,2.588,3.533,4.705,6.121,6.121L64.292,55.976z M24.93,64.901l35.313-40.103l15.104,15.104L61.773,51.854  c-1.061-0.98-1.967-2.124-2.669-3.408l-1.327-2.426c-0.351-0.642-1.404-0.642-1.755,0l-1.327,2.426  c-1.232,2.252-3.073,4.094-5.326,5.326l-2.426,1.327c-0.321,0.175-0.52,0.512-0.52,0.877s0.199,0.702,0.52,0.877l2.426,1.327  c1.044,0.571,1.995,1.278,2.843,2.092l-16.97,14.943c-0.795,0.7-2.003,0.661-2.753-0.087l-7.474-7.474  C24.268,66.905,24.23,65.696,24.93,64.901z M12.345,83.663l12.319-13.534l5.352,5.352L16.448,87.832  c-0.354,0.355-0.933,0.355-1.288,0l-2.848-2.848C11.958,84.629,11.958,84.051,12.345,83.663z"></path><path d="M70.425,27.104c0.286,0,0.57-0.122,0.768-0.358c0.204-0.244,4.992-6.083,4.385-15.614c-0.035-0.551-0.521-0.971-1.062-0.935  c-0.551,0.035-0.97,0.51-0.935,1.062c0.553,8.699-3.88,14.151-3.924,14.206c-0.353,0.424-0.297,1.053,0.126,1.407  C69.971,27.027,70.198,27.104,70.425,27.104z"></path><path d="M74.168,30.846c0.272,0,0.543-0.11,0.741-0.328c0.223-0.244,5.552-5.973,13.843-4.173c0.542,0.117,1.073-0.225,1.189-0.765  c0.117-0.54-0.225-1.072-0.765-1.189c-9.451-2.054-15.499,4.506-15.751,4.786c-0.369,0.41-0.337,1.04,0.072,1.41  C73.689,30.76,73.929,30.846,74.168,30.846z"></path><path d="M66.331,23.566c0.095,0.028,0.191,0.042,0.285,0.042c0.431,0,0.828-0.28,0.957-0.713c0.081-0.271,1.935-6.686-2.29-10.922  c-0.39-0.391-1.023-0.393-1.414-0.002c-0.391,0.39-0.392,1.023-0.002,1.414c3.375,3.385,1.805,8.884,1.789,8.939  C65.5,22.854,65.802,23.41,66.331,23.566z"></path><path d="M88.275,37.743c0.189,0.306,0.516,0.473,0.851,0.473c0.18,0,0.362-0.048,0.526-0.15c0.47-0.291,0.614-0.907,0.323-1.376  c-3.407-5.494-11.484-3.641-11.827-3.559c-0.537,0.128-0.868,0.666-0.74,1.203c0.127,0.537,0.663,0.869,1.203,0.743  C78.681,35.058,85.629,33.478,88.275,37.743z"></path></g>
</svg>
</g></svg></svg>