<svg version="1.1" preserveAspectRatio="none" xmlns="http://www.w3.org/2000/svg" width="500" height="500" viewBox="0 0 500 500"><rect width="100%" height="100%" fill="#121212" fill-opacity="1"/><svg viewBox="1252.4295 1099.0813 453.8201 168" width="333" height="123.2735174136183" x="83.5px" y="188.3632px" xmlns="http://www.w3.org/2000/svg" xmlns:xlink="http://www.w3.org/1999/xlink" preserveAspectRatio="none"><defs></defs><style>.a6izo4zJpcolor {fill:#F5F5F5;fill-opacity:1;}.companyName {fill:#F5F5F5;fill-opacity:1;}.icon3 {fill:#00DCFB;fill-opacity:1;}.icon3-str {stroke:#00DCFB;stroke-opacity:1;}.shapeStroke-str {stroke:#F5F5F5;stroke-opacity:1;}</style><g opacity="1" transform="rotate(0 1252.4295 1217.0813)">
<svg width="453.8201" height="6" x="1252.4295" y="1217.0813" version="1.1" preserveAspectRatio="none" viewBox="0 0 453.8201 6">
  <defs><rect x="0" y="0" width="453.8201" height="6" rx="4%" ry="4%" id="id-UPl23ini1679219523681"></rect></defs><use class="companyName shapeStroke-str" style="stroke-width:0;" xlink:href="#id-UPl23ini1679219523681"></use>
</svg>
</g><g opacity="1" transform="rotate(0 1252.4295 1239.0813)">
<svg width="453.82" height="28" x="1252.4295" y="1239.0813" version="1.1" preserveAspectRatio="none" viewBox="3.76 -28.56 592.56 36.56">
  <g transform="matrix(1 0 0 1 0 0)" class="a6izo4zJpcolor"><path id="id-6izo4zJp23" d="M3.76 0L3.76-28L20.72-28L20.72-24.88L7.12-24.88L7.12-15.60L20.48-15.60L20.48-12.48L7.12-12.48L7.12-3.12L20.96-3.12L20.96 0L3.76 0Z M48.28-19.84L41.36 0L35.20 0L28.28-19.84L31.96-19.84L38.04-1.44L38.52-1.44L44.60-19.84L48.28-19.84Z M73.92-8.96L57.92-8.96Q58.04-6 59.76-4.20Q61.48-2.40 64.56-2.40L64.56-2.40Q65.96-2.40 67-2.72Q68.04-3.04 68.78-3.60Q69.52-4.16 69.98-4.90Q70.44-5.64 70.72-6.48L70.72-6.48L73.68-5.68Q72.84-2.92 70.58-1.18Q68.32 0.56 64.48 0.56L64.48 0.56Q62.36 0.56 60.58-0.18Q58.80-0.92 57.52-2.28Q56.24-3.64 55.52-5.52Q54.80-7.40 54.80-9.68L54.80-9.68L54.80-10.64Q54.80-12.72 55.54-14.52Q56.28-16.32 57.60-17.62Q58.92-18.92 60.70-19.66Q62.48-20.40 64.56-20.40L64.56-20.40Q67-20.40 68.78-19.50Q70.56-18.60 71.70-17.28Q72.84-15.96 73.38-14.40Q73.92-12.84 73.92-11.52L73.92-11.52L73.92-8.96ZM64.56-17.44L64.56-17.44Q63.24-17.44 62.10-17.02Q60.96-16.60 60.10-15.84Q59.24-15.08 58.70-14.06Q58.16-13.04 58-11.84L58-11.84L70.80-11.84Q70.72-13.12 70.18-14.16Q69.64-15.20 68.78-15.92Q67.92-16.64 66.82-17.04Q65.72-17.44 64.56-17.44Z M84.84-10.32L84.84 0L81.72 0L81.72-19.84L84.84-19.84L84.84-16.48L85.32-16.48Q87.16-20.40 91.72-20.40L91.72-20.40Q95.16-20.40 97.20-18.26Q99.24-16.12 99.24-11.84L99.24-11.84L99.24 0L96.12 0L96.12-11.20Q96.12-14.32 94.72-15.88Q93.32-17.44 90.92-17.44L90.92-17.44Q88.08-17.44 86.46-15.50Q84.84-13.56 84.84-10.32L84.84-10.32Z M107.12-16.96L107.12-19.84L113.36-19.84L113.36-28L116.48-28L116.48-19.84L124.16-19.84L124.16-16.96L116.48-16.96L116.48-4.08Q116.48-2.88 117.56-2.88L117.56-2.88L123.20-2.88L123.20 0L116.44 0Q115.08 0 114.22-0.88Q113.36-1.76 113.36-3.12L113.36-3.12L113.36-16.96L107.12-16.96Z M158.32 0L158.32-28L164.72-28L168.48-1.44L168.96-1.44L172.72-28L179.12-28L179.12 0L176.00 0L176.00-26.56L175.52-26.56L171.76 0L165.68 0L161.92-26.56L161.44-26.56L161.44 0L158.32 0Z M200.44-3.12L200.44-3.36L199.96-3.36Q199.00-1.36 197.30-0.40Q195.60 0.56 193.72 0.56L193.72 0.56Q191.76 0.56 190.08-0.10Q188.40-0.76 187.14-2.06Q185.88-3.36 185.16-5.24Q184.44-7.12 184.44-9.60L184.44-9.60L184.44-10.24Q184.44-12.68 185.16-14.56Q185.88-16.44 187.14-17.74Q188.40-19.04 190.08-19.72Q191.76-20.40 193.64-20.40L193.64-20.40Q195.68-20.40 197.34-19.50Q199.00-18.60 199.96-16.72L199.96-16.72L200.44-16.72L200.44-19.84L203.56-19.84L203.56-4.08Q203.56-2.88 204.64-2.88L204.64-2.88L205.64-2.88L205.64 0L203.52 0Q202.16 0 201.30-0.88Q200.44-1.76 200.44-3.12L200.44-3.12ZM194.04-2.40L194.04-2.40Q195.44-2.40 196.62-2.92Q197.80-3.44 198.64-4.40Q199.48-5.36 199.96-6.70Q200.44-8.04 200.44-9.68L200.44-9.68L200.44-10.16Q200.44-11.76 199.96-13.10Q199.48-14.44 198.62-15.40Q197.76-16.36 196.58-16.90Q195.40-17.44 194.04-17.44L194.04-17.44Q192.64-17.44 191.48-16.92Q190.32-16.40 189.46-15.46Q188.60-14.52 188.12-13.18Q187.64-11.84 187.64-10.24L187.64-10.24L187.64-9.60Q187.64-6.20 189.42-4.30Q191.20-2.40 194.04-2.40Z M215.24-10.32L215.24 0L212.12 0L212.12-19.84L215.24-19.84L215.24-16.48L215.72-16.48Q217.56-20.40 222.12-20.40L222.12-20.40Q225.56-20.40 227.60-18.26Q229.64-16.12 229.64-11.84L229.64-11.84L229.64 0L226.52 0L226.52-11.20Q226.52-14.32 225.12-15.88Q223.72-17.44 221.32-17.44L221.32-17.44Q218.48-17.44 216.86-15.50Q215.24-13.56 215.24-10.32L215.24-10.32Z M252.60-3.12L252.60-3.36L252.12-3.36Q251.16-1.36 249.46-0.40Q247.76 0.56 245.88 0.56L245.88 0.56Q243.92 0.56 242.24-0.10Q240.56-0.76 239.30-2.06Q238.04-3.36 237.32-5.24Q236.60-7.12 236.60-9.60L236.60-9.60L236.60-10.24Q236.60-12.68 237.32-14.56Q238.04-16.44 239.30-17.74Q240.56-19.04 242.24-19.72Q243.92-20.40 245.80-20.40L245.80-20.40Q247.84-20.40 249.50-19.50Q251.16-18.60 252.12-16.72L252.12-16.72L252.60-16.72L252.60-19.84L255.72-19.84L255.72-4.08Q255.72-2.88 256.80-2.88L256.80-2.88L257.80-2.88L257.80 0L255.68 0Q254.32 0 253.46-0.88Q252.60-1.76 252.60-3.12L252.60-3.12ZM246.20-2.40L246.20-2.40Q247.60-2.40 248.78-2.92Q249.96-3.44 250.80-4.40Q251.64-5.36 252.12-6.70Q252.60-8.04 252.60-9.68L252.60-9.68L252.60-10.16Q252.60-11.76 252.12-13.10Q251.64-14.44 250.78-15.40Q249.92-16.36 248.74-16.90Q247.56-17.44 246.20-17.44L246.20-17.44Q244.80-17.44 243.64-16.92Q242.48-16.40 241.62-15.46Q240.76-14.52 240.28-13.18Q239.80-11.84 239.80-10.24L239.80-10.24L239.80-9.60Q239.80-6.20 241.58-4.30Q243.36-2.40 246.20-2.40Z M279.36 3.92L279.36-3.04L278.88-3.04Q277.92-1.24 276.26-0.34Q274.60 0.56 272.64 0.56L272.64 0.56Q270.64 0.56 268.88-0.12Q267.12-0.80 265.78-2.08Q264.44-3.36 263.66-5.26Q262.88-7.16 262.88-9.60L262.88-9.60L262.88-10.24Q262.88-12.64 263.68-14.54Q264.48-16.44 265.80-17.74Q267.12-19.04 268.88-19.72Q270.64-20.40 272.56-20.40L272.56-20.40Q274.72-20.40 276.34-19.46Q277.96-18.52 278.88-16.72L278.88-16.72L279.36-16.72L279.36-19.84L282.48-19.84L282.48 4.88Q282.48 6.24 281.62 7.12Q280.76 8 279.40 8L279.40 8L266.48 8L266.48 5.12L278.28 5.12Q279.36 5.12 279.36 3.92L279.36 3.92ZM272.72-2.40L272.72-2.40Q274.12-2.40 275.32-2.92Q276.52-3.44 277.42-4.40Q278.32-5.36 278.84-6.70Q279.36-8.04 279.36-9.68L279.36-9.68L279.36-10.16Q279.36-11.76 278.84-13.10Q278.32-14.44 277.42-15.40Q276.52-16.36 275.30-16.90Q274.08-17.44 272.72-17.44L272.72-17.44Q271.32-17.44 270.10-16.92Q268.88-16.40 267.98-15.44Q267.08-14.48 266.58-13.16Q266.08-11.84 266.08-10.24L266.08-10.24L266.08-9.60Q266.08-7.92 266.58-6.60Q267.08-5.28 267.98-4.34Q268.88-3.40 270.08-2.90Q271.28-2.40 272.72-2.40Z M308.64-8.96L292.64-8.96Q292.76-6 294.48-4.20Q296.20-2.40 299.28-2.40L299.28-2.40Q300.68-2.40 301.72-2.72Q302.76-3.04 303.50-3.60Q304.24-4.16 304.70-4.90Q305.16-5.64 305.44-6.48L305.44-6.48L308.40-5.68Q307.56-2.92 305.30-1.18Q303.04 0.56 299.20 0.56L299.20 0.56Q297.08 0.56 295.30-0.18Q293.52-0.92 292.24-2.28Q290.96-3.64 290.24-5.52Q289.52-7.40 289.52-9.68L289.52-9.68L289.52-10.64Q289.52-12.72 290.26-14.52Q291-16.32 292.32-17.62Q293.64-18.92 295.42-19.66Q297.20-20.40 299.28-20.40L299.28-20.40Q301.72-20.40 303.50-19.50Q305.28-18.60 306.42-17.28Q307.56-15.96 308.10-14.40Q308.64-12.84 308.64-11.52L308.64-11.52L308.64-8.96ZM299.28-17.44L299.28-17.44Q297.96-17.44 296.82-17.02Q295.68-16.60 294.82-15.84Q293.96-15.08 293.42-14.06Q292.88-13.04 292.72-11.84L292.72-11.84L305.52-11.84Q305.44-13.12 304.90-14.16Q304.36-15.20 303.50-15.92Q302.64-16.64 301.54-17.04Q300.44-17.44 299.28-17.44Z M335.52-15.28L335.52 0L332.40 0L332.40-14.24Q332.40-15.64 331.76-16.54Q331.12-17.44 329.72-17.44L329.72-17.44Q328.40-17.44 327.58-16.46Q326.76-15.48 326.76-13.44L326.76-13.44L326.76 0L323.64 0L323.64-14.40Q323.64-15.72 322.92-16.58Q322.20-17.44 321.00-17.44L321.00-17.44Q319.56-17.44 318.78-16.40Q318.00-15.36 318.00-13.68L318.00-13.68L318.00 0L314.88 0L314.88-19.84L318.00-19.84L318.00-17.68L318.48-17.68Q319.00-19.08 320.00-19.74Q321.00-20.40 322.36-20.40L322.36-20.40Q323.80-20.40 324.74-19.64Q325.68-18.88 326.04-17.68L326.04-17.68L326.52-17.68Q327.88-20.40 330.84-20.40L330.84-20.40Q333.08-20.40 334.30-18.98Q335.52-17.56 335.52-15.28L335.52-15.28Z M360.80-8.96L344.80-8.96Q344.92-6 346.64-4.20Q348.36-2.40 351.44-2.40L351.44-2.40Q352.84-2.40 353.88-2.72Q354.92-3.04 355.66-3.60Q356.40-4.16 356.86-4.90Q357.32-5.64 357.60-6.48L357.60-6.48L360.56-5.68Q359.72-2.92 357.46-1.18Q355.20 0.56 351.36 0.56L351.36 0.56Q349.24 0.56 347.46-0.18Q345.68-0.92 344.40-2.28Q343.12-3.64 342.40-5.52Q341.68-7.40 341.68-9.68L341.68-9.68L341.68-10.64Q341.68-12.72 342.42-14.52Q343.16-16.32 344.48-17.62Q345.80-18.92 347.58-19.66Q349.36-20.40 351.44-20.40L351.44-20.40Q353.88-20.40 355.66-19.50Q357.44-18.60 358.58-17.28Q359.72-15.96 360.26-14.40Q360.80-12.84 360.80-11.52L360.80-11.52L360.80-8.96ZM351.44-17.44L351.44-17.44Q350.12-17.44 348.98-17.02Q347.84-16.60 346.98-15.84Q346.12-15.08 345.58-14.06Q345.04-13.04 344.88-11.84L344.88-11.84L357.68-11.84Q357.60-13.12 357.06-14.16Q356.52-15.20 355.66-15.92Q354.80-16.64 353.70-17.04Q352.60-17.44 351.44-17.44Z M371.72-10.32L371.72 0L368.60 0L368.60-19.84L371.72-19.84L371.72-16.48L372.20-16.48Q374.04-20.40 378.60-20.40L378.60-20.40Q382.04-20.40 384.08-18.26Q386.12-16.12 386.12-11.84L386.12-11.84L386.12 0L383.00 0L383.00-11.20Q383.00-14.32 381.60-15.88Q380.20-17.44 377.80-17.44L377.80-17.44Q374.96-17.44 373.34-15.50Q371.72-13.56 371.72-10.32L371.72-10.32Z M394.00-16.96L394.00-19.84L400.24-19.84L400.24-28L403.36-28L403.36-19.84L411.04-19.84L411.04-16.96L403.36-16.96L403.36-4.08Q403.36-2.88 404.44-2.88L404.44-2.88L410.08-2.88L410.08 0L403.32 0Q401.96 0 401.10-0.88Q400.24-1.76 400.24-3.12L400.24-3.12L400.24-16.96L394.00-16.96Z M462.20-18.48L462.20-19.92Q462.20-21.28 461.66-22.32Q461.12-23.36 460.20-24.04Q459.28-24.72 458.08-25.08Q456.88-25.44 455.56-25.44L455.56-25.44Q454.40-25.44 453.36-25.14Q452.32-24.84 451.50-24.28Q450.68-23.72 450.20-22.90Q449.72-22.08 449.72-21L449.72-21L449.72-20.76Q449.72-19.60 450.20-18.78Q450.68-17.96 451.62-17.38Q452.56-16.80 453.96-16.42Q455.36-16.04 457.24-15.76L457.24-15.76Q461.64-15.08 463.72-13.18Q465.80-11.28 465.80-8.08L465.80-8.08L465.80-7.60Q465.80-5.80 465.18-4.30Q464.56-2.80 463.34-1.72Q462.12-0.64 460.32-0.04Q458.52 0.56 456.16 0.56L456.16 0.56Q453.48 0.56 451.42-0.22Q449.36-1 447.98-2.38Q446.60-3.76 445.88-5.62Q445.16-7.48 445.16-9.68L445.16-9.68L445.16-10.88L448.52-10.88L448.52-9.92Q448.52-6.24 450.54-4.40Q452.56-2.56 456.16-2.56L456.16-2.56Q459.28-2.56 460.86-3.94Q462.44-5.32 462.44-7.60L462.44-7.60L462.44-7.84Q462.44-10.04 460.82-11.20Q459.20-12.36 455.56-12.88L455.56-12.88Q453.44-13.16 451.74-13.74Q450.04-14.32 448.84-15.26Q447.64-16.20 447.00-17.52Q446.36-18.84 446.36-20.64L446.36-20.64L446.36-21.12Q446.36-22.76 447.04-24.12Q447.72-25.48 448.94-26.48Q450.16-27.48 451.86-28.02Q453.56-28.56 455.60-28.56L455.60-28.56Q457.96-28.56 459.82-27.88Q461.68-27.20 462.96-26.06Q464.24-24.92 464.90-23.38Q465.56-21.84 465.56-20.16L465.56-20.16L465.56-18.48L462.20-18.48Z M487.32 3.92L487.32-3.60L486.84-3.60Q485.88-1.68 484.32-0.56Q482.76 0.56 480.36 0.56L480.36 0.56Q478.72 0.56 477.34 0.02Q475.96-0.52 474.98-1.60Q474.00-2.68 473.46-4.28Q472.92-5.88 472.92-8L472.92-8L472.92-19.84L476.04-19.84L476.04-8.40Q476.04-5.28 477.32-3.84Q478.60-2.40 481.24-2.40L481.24-2.40Q484.08-2.40 485.70-4.34Q487.32-6.28 487.32-9.52L487.32-9.52L487.32-19.84L490.44-19.84L490.44 4.88Q490.44 6.24 489.58 7.12Q488.72 8 487.36 8L487.36 8L476.04 8L476.04 5.12L486.24 5.12Q487.32 5.12 487.32 3.92L487.32 3.92Z M503.12-14.72L503.12-14.72Q503.12-13.28 504.34-12.52Q505.56-11.76 508.80-11.52L508.80-11.52Q512.28-11.24 514.10-9.86Q515.92-8.48 515.92-5.84L515.92-5.84L515.92-5.60Q515.92-4.16 515.34-3.02Q514.76-1.88 513.74-1.08Q512.72-0.28 511.26 0.14Q509.80 0.56 508.08 0.56L508.08 0.56Q505.76 0.56 504.10-0.06Q502.44-0.68 501.34-1.70Q500.24-2.72 499.68-4.02Q499.12-5.32 499.04-6.64L499.04-6.64L502.00-7.36Q502.20-5.08 503.76-3.70Q505.32-2.32 507.92-2.32L507.92-2.32Q510.12-2.32 511.46-3.18Q512.80-4.04 512.80-5.60L512.80-5.60Q512.80-7.28 511.48-8Q510.16-8.72 507.20-8.92L507.20-8.92Q503.76-9.16 501.92-10.52Q500.08-11.88 500.08-14.48L500.08-14.48L500.08-14.72Q500.08-16.12 500.68-17.18Q501.28-18.24 502.30-18.96Q503.32-19.68 504.60-20.04Q505.88-20.40 507.28-20.40L507.28-20.40Q509.24-20.40 510.72-19.86Q512.20-19.32 513.20-18.46Q514.20-17.60 514.74-16.48Q515.28-15.36 515.44-14.24L515.44-14.24L512.48-13.52Q512.28-15.44 510.94-16.52Q509.60-17.60 507.44-17.60L507.44-17.60Q506.60-17.60 505.82-17.42Q505.04-17.24 504.44-16.88Q503.84-16.52 503.48-15.98Q503.12-15.44 503.12-14.72Z M524.40-16.96L524.40-19.84L530.64-19.84L530.64-28L533.76-28L533.76-19.84L541.44-19.84L541.44-16.96L533.76-16.96L533.76-4.08Q533.76-2.88 534.84-2.88L534.84-2.88L540.48-2.88L540.48 0L533.72 0Q532.36 0 531.50-0.88Q530.64-1.76 530.64-3.12L530.64-3.12L530.64-16.96L524.40-16.96Z M569.44-8.96L553.44-8.96Q553.56-6 555.28-4.20Q557.00-2.40 560.08-2.40L560.08-2.40Q561.48-2.40 562.52-2.72Q563.56-3.04 564.30-3.60Q565.04-4.16 565.50-4.90Q565.96-5.64 566.24-6.48L566.24-6.48L569.20-5.68Q568.36-2.92 566.10-1.18Q563.84 0.56 560.00 0.56L560.00 0.56Q557.88 0.56 556.10-0.18Q554.32-0.92 553.04-2.28Q551.76-3.64 551.04-5.52Q550.32-7.40 550.32-9.68L550.32-9.68L550.32-10.64Q550.32-12.72 551.06-14.52Q551.80-16.32 553.12-17.62Q554.44-18.92 556.22-19.66Q558.00-20.40 560.08-20.40L560.08-20.40Q562.52-20.40 564.30-19.50Q566.08-18.60 567.22-17.28Q568.36-15.96 568.90-14.40Q569.44-12.84 569.44-11.52L569.44-11.52L569.44-8.96ZM560.08-17.44L560.08-17.44Q558.76-17.44 557.62-17.02Q556.48-16.60 555.62-15.84Q554.76-15.08 554.22-14.06Q553.68-13.04 553.52-11.84L553.52-11.84L566.32-11.84Q566.24-13.12 565.70-14.16Q565.16-15.20 564.30-15.92Q563.44-16.64 562.34-17.04Q561.24-17.44 560.08-17.44Z M596.32-15.28L596.32 0L593.20 0L593.20-14.24Q593.20-15.64 592.56-16.54Q591.92-17.44 590.52-17.44L590.52-17.44Q589.20-17.44 588.38-16.46Q587.56-15.48 587.56-13.44L587.56-13.44L587.56 0L584.44 0L584.44-14.40Q584.44-15.72 583.72-16.58Q583.00-17.44 581.80-17.44L581.80-17.44Q580.36-17.44 579.58-16.40Q578.80-15.36 578.80-13.68L578.80-13.68L578.80 0L575.68 0L575.68-19.84L578.80-19.84L578.80-17.68L579.28-17.68Q579.80-19.08 580.80-19.74Q581.80-20.40 583.16-20.40L583.16-20.40Q584.60-20.40 585.54-19.64Q586.48-18.88 586.84-17.68L586.84-17.68L587.32-17.68Q588.68-20.40 591.64-20.40L591.64-20.40Q593.88-20.40 595.10-18.98Q596.32-17.56 596.32-15.28L596.32-15.28Z"/></g>
</svg>
</g><g opacity="1" transform="rotate(0 1288.1677 1099.0813)">
<svg width="382.3437" height="100" x="1288.1677" y="1099.0813" version="1.1" preserveAspectRatio="none" viewBox="2.8 -28.8 110.88 29">
  <g transform="matrix(1 0 0 1 0 0)" class="companyName"><path id="id-D6z1nYkh3" d="M34.16 0L2.80 0L2.80-28.60L34.16-28.60L34.16-23.40L9.20-23.40L9.20-17.08L31.84-17.08L31.84-11.88L9.20-11.88L9.20-5.20L34.16-5.20L34.16 0Z M44.96 0L38.56 0L38.56-28.60L43.92-28.60L57.16-19.32L57.36-19.32L70.60-28.60L75.96-28.60L75.96 0L69.56 0L69.56-20.60L60.48-14.52L60.48 0L54.08 0L54.08-14.52L44.96-20.60L44.96 0Z M104.32 0.20L80.64 0.20L80.64-5L103.64-4.96Q105.40-4.96 106.34-5.78Q107.28-6.60 107.28-8.44L107.28-8.44Q107.28-10.28 106.34-11.10Q105.40-11.92 103.64-11.92L103.64-11.92L89.32-11.92Q84.88-11.92 82.42-14.06Q79.96-16.20 79.96-20.36L79.96-20.36Q79.96-24.52 82.42-26.66Q84.88-28.80 89.32-28.80L89.32-28.80L111.80-28.80L111.80-23.60L90.00-23.64Q88.28-23.64 87.32-22.86Q86.36-22.08 86.36-20.36L86.36-20.36Q86.36-18.64 87.32-17.86Q88.28-17.08 90.00-17.08L90.00-17.08L104.32-17.08Q108.76-17.08 111.22-14.90Q113.68-12.72 113.68-8.44L113.68-8.44Q113.68-4.20 111.22-2Q108.76 0.20 104.32 0.20L104.32 0.20Z"/></g>
</svg>
</g><g opacity="1" transform="rotate(0 1252.4295 1217.0813)">
<svg width="84.1156" height="6" x="1252.4295" y="1217.0813" version="1.1" preserveAspectRatio="none" viewBox="0 0 84.1156 6">
  <defs><rect x="0" y="0" width="84.1156" height="6" rx="0px" ry="0px" id="id-o0jQam8yd1679219523681"></rect></defs><use class="icon3 shapeStroke-str" style="stroke-width:0;" xlink:href="#id-o0jQam8yd1679219523681"></use>
</svg>
</g></svg></svg>