<svg version="1.1" preserveAspectRatio="none" xmlns="http://www.w3.org/2000/svg" width="500" height="500" viewBox="0 0 500 500"><rect width="100%" height="100%" fill="#121B31" fill-opacity="1"/><svg viewBox="290.2123 409.7644 455.2209 189.6" width="333" height="138.6948622086552" x="83.5px" y="180.6526px" xmlns="http://www.w3.org/2000/svg" xmlns:xlink="http://www.w3.org/1999/xlink" preserveAspectRatio="none"><defs></defs><style>.companyName {fill:#F7F7F7;fill-opacity:1;}.icon3 {fill:#D0E156;fill-opacity:1;}.icon3-str {stroke:#D0E156;stroke-opacity:1;}.shapeStroke-str {stroke:#F7F7F7;stroke-opacity:1;}.text {fill:#F7F7F7;fill-opacity:1;}</style><g opacity="1" transform="rotate(0 290.2123 565.7644)">
<svg width="455.2209" height="33.6" x="290.2123" y="565.7644" version="1.1" preserveAspectRatio="none" viewBox="4.16 -29.84 515.92 38.08">
  <g transform="matrix(1 0 0 1 0 0)" class="text"><path id="id-6izo4zJp23" d="M4.16-28.92L22.96-28.92L22.96-25.20L8.04-25.20L8.04-16.40L21.36-16.40L21.36-12.68L8.04-12.68L8.04-3.76L23.52-3.76L23.52 0L4.16 0L4.16-28.92Z M42.16-16.56L46.32-16.56L37.48 0.48L37.28 0.48L28.08-16.56L32.52-16.56L37.52-6L42.16-16.56Z M58.88-2.80Q60.96-2.80 62.92-4.24L62.92-4.24L64.64-1.48Q63.32-0.60 61.78-0.10Q60.24 0.40 58.80 0.40L58.80 0.40Q56.04 0.40 53.98-0.74Q51.92-1.88 50.80-3.88Q49.68-5.88 49.68-8.40L49.68-8.40Q49.68-10.84 50.90-12.86Q52.12-14.88 54.24-16.06Q56.36-17.24 58.88-17.24L58.88-17.24Q62.12-17.24 64.30-15.34Q66.48-13.44 67.28-10.04L67.28-10.04L54.16-5.44Q54.88-4.20 56.10-3.50Q57.32-2.80 58.88-2.80L58.88-2.80ZM58.60-14.28Q56.32-14.28 54.84-12.68Q53.36-11.08 53.36-8.60L53.36-8.60Q53.36-8 53.40-7.68L53.40-7.68L63.04-11.24Q62.44-12.60 61.34-13.44Q60.24-14.28 58.60-14.28L58.60-14.28Z M83.40-17.20Q85.72-17.20 87.24-15.82Q88.76-14.44 88.80-12.24L88.80-12.24L88.80 0L85.04 0L85.04-10.96Q84.96-12.36 84.20-13.16Q83.44-13.96 81.92-14L81.92-14Q79.72-14 78.28-12.24Q76.84-10.48 76.84-7.76L76.84-7.76L76.84 0L73.12 0L73.12-16.56L76.48-16.56L76.72-13.36Q77.60-15.16 79.36-16.18Q81.12-17.20 83.40-17.20L83.40-17.20Z M98.04-23.84L101.80-23.84L101.80-16.52L106.32-16.52L106.32-13.56L101.80-13.56L101.80 0L98.04 0L98.04-13.56L95.00-13.56L95.00-16.52L98.04-16.52L98.04-23.84Z M155.52-29.84L155.56-29.84L155.56 0L151.72 0L151.72-18.72L141.08-3.64L141.00-3.64L130.56-18.20L130.56 0L126.80 0L126.80-29.84L126.84-29.84L141.08-9.68L155.52-29.84Z M177.72-16.56L181.16-16.56L181.16 0L177.44 0L177.44-2.72Q176.56-1.56 174.88-0.58Q173.20 0.40 171.08 0.40L171.08 0.40Q168.72 0.40 166.82-0.62Q164.92-1.64 163.82-3.60Q162.72-5.56 162.72-8.28L162.72-8.28Q162.72-11 163.86-13.02Q165.00-15.04 166.94-16.14Q168.88-17.24 171.24-17.24L171.24-17.24Q173.36-17.24 174.92-16.32Q176.48-15.40 177.44-13.92L177.44-13.92L177.72-16.56ZM172.08-2.68Q174.12-2.68 175.58-3.82Q177.04-4.96 177.44-6.92L177.44-6.92L177.44-10.20Q176.96-11.96 175.44-13.06Q173.92-14.16 171.96-14.16L171.96-14.16Q170.48-14.16 169.22-13.44Q167.96-12.72 167.22-11.42Q166.48-10.12 166.48-8.48L166.48-8.48Q166.48-6.88 167.24-5.56Q168.00-4.24 169.28-3.46Q170.56-2.68 172.08-2.68L172.08-2.68Z M199.12-17.20Q201.44-17.20 202.96-15.82Q204.48-14.44 204.52-12.24L204.52-12.24L204.52 0L200.76 0L200.76-10.96Q200.68-12.36 199.92-13.16Q199.16-13.96 197.64-14L197.64-14Q195.44-14 194-12.24Q192.56-10.48 192.56-7.76L192.56-7.76L192.56 0L188.84 0L188.84-16.56L192.20-16.56L192.44-13.36Q193.32-15.16 195.08-16.18Q196.84-17.20 199.12-17.20L199.12-17.20Z M225.72-16.56L229.16-16.56L229.16 0L225.44 0L225.44-2.72Q224.56-1.56 222.88-0.58Q221.20 0.40 219.08 0.40L219.08 0.40Q216.72 0.40 214.82-0.62Q212.92-1.64 211.82-3.60Q210.72-5.56 210.72-8.28L210.72-8.28Q210.72-11 211.86-13.02Q213-15.04 214.94-16.14Q216.88-17.24 219.24-17.24L219.24-17.24Q221.36-17.24 222.92-16.32Q224.48-15.40 225.44-13.92L225.44-13.92L225.72-16.56ZM220.08-2.68Q222.12-2.68 223.58-3.82Q225.04-4.96 225.44-6.92L225.44-6.92L225.44-10.20Q224.96-11.96 223.44-13.06Q221.92-14.16 219.96-14.16L219.96-14.16Q218.48-14.16 217.22-13.44Q215.96-12.72 215.22-11.42Q214.48-10.12 214.48-8.48L214.48-8.48Q214.48-6.88 215.24-5.56Q216-4.24 217.28-3.46Q218.56-2.68 220.08-2.68L220.08-2.68Z M250.92-16.56L254.32-16.56L254.32 0.12Q254.32 2.40 253.16 4.24Q252.00 6.08 249.86 7.16Q247.72 8.24 244.84 8.24L244.84 8.24Q242.32 8.24 240.50 7.40Q238.68 6.56 236.84 4.92L236.84 4.92L239.04 2.36Q240.40 3.64 241.76 4.30Q243.12 4.96 244.76 4.96L244.76 4.96Q247.52 4.96 249.02 3.64Q250.52 2.32 250.56 0.08L250.56 0.08L250.60-3.04Q249.68-1.48 247.90-0.54Q246.12 0.40 243.80 0.40L243.80 0.40Q241.52 0.40 239.60-0.76Q237.68-1.92 236.54-3.92Q235.40-5.92 235.40-8.36L235.40-8.36Q235.40-10.88 236.58-12.90Q237.76-14.92 239.76-16.08Q241.76-17.24 244.04-17.24L244.04-17.24Q246.16-17.24 247.96-16.40Q249.76-15.56 250.64-14.24L250.64-14.24L250.92-16.56ZM244.88-2.68Q247.00-2.68 248.56-3.84Q250.12-5 250.60-6.88L250.60-6.88L250.60-10.16Q250.04-11.96 248.48-13.06Q246.92-14.16 244.88-14.16L244.88-14.16Q242.44-14.16 240.80-12.56Q239.16-10.96 239.16-8.48L239.16-8.48Q239.16-6.88 239.92-5.56Q240.68-4.24 242.00-3.46Q243.32-2.68 244.88-2.68L244.88-2.68Z M269.76-2.80Q271.84-2.80 273.80-4.24L273.80-4.24L275.52-1.48Q274.20-0.60 272.66-0.10Q271.12 0.40 269.68 0.40L269.68 0.40Q266.92 0.40 264.86-0.74Q262.80-1.88 261.68-3.88Q260.56-5.88 260.56-8.40L260.56-8.40Q260.56-10.84 261.78-12.86Q263.00-14.88 265.12-16.06Q267.24-17.24 269.76-17.24L269.76-17.24Q273.00-17.24 275.18-15.34Q277.36-13.44 278.16-10.04L278.16-10.04L265.04-5.44Q265.76-4.20 266.98-3.50Q268.20-2.80 269.76-2.80L269.76-2.80ZM269.48-14.28Q267.20-14.28 265.72-12.68Q264.24-11.08 264.24-8.60L264.24-8.60Q264.24-8 264.28-7.68L264.28-7.68L273.92-11.24Q273.32-12.60 272.22-13.44Q271.12-14.28 269.48-14.28L269.48-14.28Z M305.24-17.24Q307.64-17.24 309.06-15.88Q310.48-14.52 310.56-12.28L310.56-12.28L310.56 0L306.84 0L306.84-10.92Q306.72-13.84 304.20-14L304.20-14Q302.76-14 301.62-13.14Q300.48-12.28 299.84-10.88Q299.20-9.48 299.16-7.88L299.16-7.88L299.16 0L295.40 0L295.40-10.92Q295.28-13.84 292.68-14L292.68-14Q291.28-14 290.14-13.14Q289.00-12.28 288.36-10.86Q287.72-9.44 287.72-7.84L287.72-7.84L287.72 0L284.00 0L284.00-16.56L287.36-16.56L287.64-13.44Q288.60-15.24 290.26-16.24Q291.92-17.24 294.04-17.24L294.04-17.24Q296.04-17.24 297.40-16.30Q298.76-15.36 299.16-13.72L299.16-13.72Q300.20-15.36 301.80-16.30Q303.40-17.24 305.24-17.24L305.24-17.24Z M325.96-2.80Q328.04-2.80 330.00-4.24L330.00-4.24L331.72-1.48Q330.40-0.60 328.86-0.10Q327.32 0.40 325.88 0.40L325.88 0.40Q323.12 0.40 321.06-0.74Q319.00-1.88 317.88-3.88Q316.76-5.88 316.76-8.40L316.76-8.40Q316.76-10.84 317.98-12.86Q319.20-14.88 321.32-16.06Q323.44-17.24 325.96-17.24L325.96-17.24Q329.20-17.24 331.38-15.34Q333.56-13.44 334.36-10.04L334.36-10.04L321.24-5.44Q321.96-4.20 323.18-3.50Q324.40-2.80 325.96-2.80L325.96-2.80ZM325.68-14.28Q323.40-14.28 321.92-12.68Q320.44-11.08 320.44-8.60L320.44-8.60Q320.44-8 320.48-7.68L320.48-7.68L330.12-11.24Q329.52-12.60 328.42-13.44Q327.32-14.28 325.68-14.28L325.68-14.28Z M350.48-17.20Q352.80-17.20 354.32-15.82Q355.84-14.44 355.88-12.24L355.88-12.24L355.88 0L352.12 0L352.12-10.96Q352.04-12.36 351.28-13.16Q350.52-13.96 349.00-14L349.00-14Q346.80-14 345.36-12.24Q343.92-10.48 343.92-7.76L343.92-7.76L343.92 0L340.20 0L340.20-16.56L343.56-16.56L343.80-13.36Q344.68-15.16 346.44-16.18Q348.20-17.20 350.48-17.20L350.48-17.20Z M365.12-23.84L368.88-23.84L368.88-16.52L373.40-16.52L373.40-13.56L368.88-13.56L368.88 0L365.12 0L365.12-13.56L362.08-13.56L362.08-16.52L365.12-16.52L365.12-23.84Z M408.84-23.76Q407.28-24.60 405.52-25.12Q403.76-25.64 402.20-25.64L402.20-25.64Q399.84-25.64 398.46-24.58Q397.08-23.52 397.08-21.68L397.08-21.68Q397.08-19.88 398.70-18.74Q400.32-17.60 403.32-16.48L403.32-16.48Q405.56-15.68 407.10-14.74Q408.64-13.80 409.66-12.14Q410.68-10.48 410.68-7.92L410.68-7.92Q410.68-5.60 409.52-3.72Q408.36-1.84 406.22-0.76Q404.08 0.32 401.20 0.32L401.20 0.32Q398.52 0.32 396.04-0.54Q393.56-1.40 391.68-2.72L391.68-2.72L393.40-5.80Q394.88-4.68 396.96-3.90Q399.04-3.12 400.84-3.12L400.84-3.12Q403.16-3.12 404.90-4.32Q406.64-5.52 406.64-7.88L406.64-7.88Q406.64-9.88 405.18-11.06Q403.72-12.24 401.08-13.28L401.08-13.28Q398.64-14.20 397.02-15.08Q395.40-15.96 394.24-17.50Q393.08-19.04 393.08-21.36L393.08-21.36Q393.08-24.76 395.46-26.86Q397.84-28.96 401.64-29.08L401.64-29.08Q406.32-29.08 410.32-26.76L410.32-26.76L408.84-23.76Z M429.76-16.56L433.20-16.56L422.52 7.96L418.84 7.96L422.64-0.56L414.96-16.56L419.16-16.56L424.52-4.76L429.76-16.56Z M443.08 0.36Q441.24 0.36 439.58-0.28Q437.92-0.92 436.88-2.16L436.88-2.16L438.48-4.32Q439.48-3.36 440.58-2.84Q441.68-2.32 442.76-2.32L442.76-2.32Q444.08-2.32 444.92-2.84Q445.76-3.36 445.76-4.44L445.76-4.44Q445.76-5.28 445.24-5.80Q444.72-6.32 444.06-6.56Q443.40-6.80 441.84-7.28L441.84-7.28Q437.60-8.64 437.60-12.12L437.60-12.12Q437.60-14.20 439.14-15.68Q440.68-17.16 443.44-17.16L443.44-17.16Q445.20-17.16 446.56-16.72Q447.92-16.28 449.08-15.32L449.08-15.32L447.60-13.04Q446.96-13.72 445.98-14.12Q445.00-14.52 444.12-14.56L444.12-14.56Q443.00-14.56 442.20-14.02Q441.40-13.48 441.40-12.56L441.40-12.56Q441.40-11.80 441.92-11.30Q442.44-10.80 443.00-10.58Q443.56-10.36 445.20-9.84L445.20-9.84Q447.24-9.16 448.38-8.08Q449.52-7 449.52-5.16L449.52-5.16Q449.52-2.76 447.84-1.20Q446.16 0.36 443.08 0.36L443.08 0.36Z M457.52-23.84L461.28-23.84L461.28-16.52L465.80-16.52L465.80-13.56L461.28-13.56L461.28 0L457.52 0L457.52-13.56L454.48-13.56L454.48-16.52L457.52-16.52L457.52-23.84Z M479.28-2.80Q481.36-2.80 483.32-4.24L483.32-4.24L485.04-1.48Q483.72-0.60 482.18-0.10Q480.64 0.40 479.20 0.40L479.20 0.40Q476.44 0.40 474.38-0.74Q472.32-1.88 471.20-3.88Q470.08-5.88 470.08-8.40L470.08-8.40Q470.08-10.84 471.30-12.86Q472.52-14.88 474.64-16.06Q476.76-17.24 479.28-17.24L479.28-17.24Q482.52-17.24 484.70-15.34Q486.88-13.44 487.68-10.04L487.68-10.04L474.56-5.44Q475.28-4.20 476.50-3.50Q477.72-2.80 479.28-2.80L479.28-2.80ZM479.00-14.28Q476.72-14.28 475.24-12.68Q473.76-11.08 473.76-8.60L473.76-8.60Q473.76-8 473.80-7.68L473.80-7.68L483.44-11.24Q482.84-12.60 481.74-13.44Q480.64-14.28 479.00-14.28L479.00-14.28Z M514.76-17.24Q517.16-17.24 518.58-15.88Q520.00-14.52 520.08-12.28L520.08-12.28L520.08 0L516.36 0L516.36-10.92Q516.24-13.84 513.72-14L513.72-14Q512.28-14 511.14-13.14Q510.00-12.28 509.36-10.88Q508.72-9.48 508.68-7.88L508.68-7.88L508.68 0L504.92 0L504.92-10.92Q504.80-13.84 502.20-14L502.20-14Q500.80-14 499.66-13.14Q498.52-12.28 497.88-10.86Q497.24-9.44 497.24-7.84L497.24-7.84L497.24 0L493.52 0L493.52-16.56L496.88-16.56L497.16-13.44Q498.12-15.24 499.78-16.24Q501.44-17.24 503.56-17.24L503.56-17.24Q505.56-17.24 506.92-16.30Q508.28-15.36 508.68-13.72L508.68-13.72Q509.72-15.36 511.32-16.30Q512.92-17.24 514.76-17.24L514.76-17.24Z"/></g>
</svg>
</g><g opacity="1" transform="rotate(0 350.5284 409.7644)">
<svg width="334.5888" height="120" x="350.5284" y="409.7644" version="1.1" preserveAspectRatio="none" viewBox="4.16 -26.8 75.84 27.2">
  <g transform="matrix(1 0 0 1 0 0)" class="companyName"><path id="id-D6z1nYkh3" d="M6.16-1.84L22.84-1.84L22.84 0L4.16 0L4.16-26.40L22.20-26.40L22.20-24.56L6.16-24.56L6.16-14.36L18.84-14.36L18.84-12.48L6.16-12.48L6.16-1.84Z M53.20-26.40L53.20 0L51.28 0L51.28-19.68L51.52-24.48L51.48-24.48L41.84 0L40 0L30.36-24.48L30.32-24.48L30.56-19.68L30.56 0L28.64 0L28.64-26.40L31.64-26.40L39.60-6.40L40.92-2.36L40.96-2.36L42.24-6.36L50.20-26.40L53.20-26.40Z M69.68-26.80Q77.12-26.80 79.64-20.96L79.64-20.96L77.92-19.56Q76.92-22.40 74.94-23.68Q72.96-24.96 69.72-24.96L69.72-24.96Q67.40-24.96 65.68-24.24Q63.96-23.52 63.06-22.28Q62.16-21.04 62.16-19.48L62.16-19.48Q62.16-17.96 62.92-16.96Q63.68-15.96 65.50-15.26Q67.32-14.56 70.52-14L70.52-14Q75.68-13.12 77.84-11.44Q80-9.76 80-6.80L80-6.80Q80-4.68 78.76-3.04Q77.52-1.40 75.26-0.50Q73 0.40 70.08 0.40L70.08 0.40Q65.92 0.40 63.06-1.26Q60.20-2.92 59.16-5.92L59.16-5.92L60.92-7.28Q61.72-4.44 64.14-2.94Q66.56-1.44 70.12-1.44L70.12-1.44Q73.56-1.44 75.74-2.84Q77.92-4.24 77.92-6.68L77.92-6.68Q77.92-8.80 76.14-10.04Q74.36-11.28 69.96-12.04L69.96-12.04Q66.24-12.68 64.08-13.60Q61.92-14.52 60.98-15.88Q60.04-17.24 60.04-19.28L60.04-19.28Q60.04-21.32 61.22-23.04Q62.40-24.76 64.58-25.78Q66.76-26.80 69.68-26.80L69.68-26.80Z"/></g>
</svg>
</g><g opacity="1" transform="rotate(0 290.2123 547.7644)">
<svg width="455.2209" height="3" x="290.2123" y="547.7644" version="1.1" preserveAspectRatio="none" viewBox="0 0 455.2209 3">
  <defs><rect x="0" y="0" width="455.2209" height="3" rx="0px" ry="0px" id="id-tBXipXk0b1679219538426"></rect></defs><use class="icon3 shapeStroke-str" style="stroke-width:0;" xlink:href="#id-tBXipXk0b1679219538426"></use>
</svg>
</g></svg></svg>