<svg version="1.1" preserveAspectRatio="none" xmlns="http://www.w3.org/2000/svg" width="500" height="500" viewBox="0 0 500 500"><rect width="100%" height="100%" fill="#012B28" fill-opacity="1"/><svg viewBox="1938.1832 1282.9028 624.6835 536" width="333" height="285.7254913888393" x="83.5px" y="107.1373px" xmlns="http://www.w3.org/2000/svg" xmlns:xlink="http://www.w3.org/1999/xlink" preserveAspectRatio="none"><defs></defs><style>.companyName {fill:#EBB42C;fill-opacity:1;}.icon2 {fill:#E7240E;fill-opacity:1;}.icon3 {fill:#B47049;fill-opacity:1;}.icon3-str {stroke:#B47049;stroke-opacity:1;}.text {fill:#EBB42C;fill-opacity:1;}</style><g opacity="1" transform="rotate(0 1938.1832 1798.9028)">
<svg width="624.6835" height="20" x="1938.1832" y="1798.9028" version="1.1" preserveAspectRatio="none" viewBox="4.32 -26.8 849.4799999999999 27.2">
  <g transform="matrix(1 0 0 1 0 0)" class="text"><path id="id-6izo4zJp23" d="M7.52-3L23.44-3L23.44 0L4.32 0L4.32-26.40L22.84-26.40L22.84-23.40L7.52-23.40L7.52-14.88L19.44-14.88L19.44-11.88L7.52-11.88L7.52-3Z M62.32-26.40L52.32 0L48.68 0L38.64-26.40L42.08-26.40L48.80-8.16L50.48-2.92L52.16-8.12L58.88-26.40L62.32-26.40Z M82.96-3L98.88-3L98.88 0L79.76 0L79.76-26.40L98.28-26.40L98.28-23.40L82.96-23.40L82.96-14.88L94.88-14.88L94.88-11.88L82.96-11.88L82.96-3Z M138-26.40L138 0L134.04 0L123-17.68L120.20-22.88L120.16-22.88L120.32-18.64L120.32 0L117.28 0L117.28-26.40L121.24-26.40L132.24-8.80L135.08-3.52L135.12-3.52L134.96-7.76L134.96-26.40L138-26.40Z M177.20-26.40L177.20-23.40L168-23.40L168 0L164.80 0L164.80-23.40L155.60-23.40L155.60-26.40L177.20-26.40Z M244.88-26.40L244.88 0L241.84 0L241.84-16.60L242.20-23.56L242.16-23.56L233.48 0L230.76 0L222.08-23.56L222.04-23.56L222.40-16.60L222.40 0L219.36 0L219.36-26.40L224.28-26.40L230.08-10.36L232.08-3.76L232.16-3.76L234.20-10.32L239.96-26.40L244.88-26.40Z M283.16 0L280.36-7.32L268.40-7.32L265.60 0L262.24 0L272.52-26.40L276.32-26.40L286.56 0L283.16 0ZM269.56-10.32L279.20-10.32L275.64-19.68L274.40-23.36L274.32-23.36L273.16-19.80L269.56-10.32Z M324.64-26.40L324.64 0L320.68 0L309.64-17.68L306.84-22.88L306.80-22.88L306.96-18.64L306.96 0L303.92 0L303.92-26.40L307.88-26.40L318.88-8.80L321.72-3.52L321.76-3.52L321.60-7.76L321.60-26.40L324.64-26.40Z M362.92 0L360.12-7.32L348.16-7.32L345.36 0L342.00 0L352.28-26.40L356.08-26.40L366.32 0L362.92 0ZM349.32-10.32L358.96-10.32L355.40-19.68L354.16-23.36L354.08-23.36L352.92-19.80L349.32-10.32Z M392.96-13.32L404.28-13.32L404.28 0L401.88 0L401.76-3.56Q400.60-1.64 398.50-0.62Q396.40 0.40 393.44 0.40L393.44 0.40Q389.72 0.40 386.96-1.26Q384.20-2.92 382.70-5.98Q381.20-9.04 381.20-13.20L381.20-13.20Q381.20-17.32 382.74-20.40Q384.28-23.48 387.06-25.14Q389.84-26.80 393.52-26.80L393.52-26.80Q397.44-26.80 399.98-25.32Q402.52-23.84 404.08-20.76L404.08-20.76L401.16-19.16Q400.28-21.40 398.30-22.60Q396.32-23.80 393.52-23.80L393.52-23.80Q390.84-23.80 388.82-22.52Q386.80-21.24 385.68-18.86Q384.56-16.48 384.56-13.20L384.56-13.20Q384.56-8.16 386.88-5.38Q389.20-2.60 393.56-2.60L393.56-2.60Q397.00-2.60 399.18-4.36Q401.36-6.12 401.36-9.40L401.36-9.40L401.36-10.32L392.96-10.32L392.96-13.32Z M426.96-3L442.88-3L442.88 0L423.76 0L423.76-26.40L442.28-26.40L442.28-23.40L426.96-23.40L426.96-14.88L438.88-14.88L438.88-11.88L426.96-11.88L426.96-3Z M486.80-26.40L486.80 0L483.76 0L483.76-16.60L484.12-23.56L484.08-23.56L475.40 0L472.68 0L464.00-23.56L463.96-23.56L464.32-16.60L464.32 0L461.28 0L461.28-26.40L466.20-26.40L472.00-10.36L474.00-3.76L474.08-3.76L476.12-10.32L481.88-26.40L486.80-26.40Z M510.64-3L526.56-3L526.56 0L507.44 0L507.44-26.40L525.96-26.40L525.96-23.40L510.64-23.40L510.64-14.88L522.56-14.88L522.56-11.88L510.64-11.88L510.64-3Z M565.68-26.40L565.68 0L561.72 0L550.68-17.68L547.88-22.88L547.84-22.88L548.00-18.64L548.00 0L544.96 0L544.96-26.40L548.92-26.40L559.92-8.80L562.76-3.52L562.80-3.52L562.64-7.76L562.64-26.40L565.68-26.40Z M604.88-26.40L604.88-23.40L595.68-23.40L595.68 0L592.48 0L592.48-23.40L583.28-23.40L583.28-26.40L604.88-26.40Z M655.52-26.80Q662.60-26.80 665.72-21.20L665.72-21.20L662.96-18.96Q661.76-21.60 660.10-22.70Q658.44-23.80 655.56-23.80L655.56-23.80Q652.52-23.80 650.78-22.54Q649.04-21.28 649.04-19.32L649.04-19.32Q649.04-18.04 649.72-17.20Q650.40-16.36 651.98-15.74Q653.56-15.12 656.36-14.64L656.36-14.64Q661.60-13.76 663.78-12Q665.96-10.24 665.96-7.12L665.96-7.12Q665.96-4.88 664.70-3.18Q663.44-1.48 661.12-0.54Q658.80 0.40 655.76 0.40L655.76 0.40Q651.76 0.40 648.94-1.16Q646.12-2.72 644.64-5.32L644.64-5.32L647.40-7.56Q648.48-5.20 650.58-3.90Q652.68-2.60 655.84-2.60L655.84-2.60Q658.96-2.60 660.80-3.74Q662.64-4.88 662.64-6.96L662.64-6.96Q662.64-8.72 661.04-9.76Q659.44-10.80 655.36-11.52L655.36-11.52Q650.08-12.44 647.88-14.16Q645.68-15.88 645.68-18.96L645.68-18.96Q645.68-21.08 646.88-22.88Q648.08-24.68 650.32-25.74Q652.56-26.80 655.52-26.80L655.52-26.80Z M702.20-26.40L692.76-10.32L692.76 0L689.56 0L689.56-10.32L680.12-26.40L683.92-26.40L691.16-13.60L698.40-26.40L702.20-26.40Z M726.64-26.80Q733.72-26.80 736.84-21.20L736.84-21.20L734.08-18.96Q732.88-21.60 731.22-22.70Q729.56-23.80 726.68-23.80L726.68-23.80Q723.64-23.80 721.90-22.54Q720.16-21.28 720.16-19.32L720.16-19.32Q720.16-18.04 720.84-17.20Q721.52-16.36 723.10-15.74Q724.68-15.12 727.48-14.64L727.48-14.64Q732.72-13.76 734.90-12Q737.08-10.24 737.08-7.12L737.08-7.12Q737.08-4.88 735.82-3.18Q734.56-1.48 732.24-0.54Q729.92 0.40 726.88 0.40L726.88 0.40Q722.88 0.40 720.06-1.16Q717.24-2.72 715.76-5.32L715.76-5.32L718.52-7.56Q719.60-5.20 721.70-3.90Q723.80-2.60 726.96-2.60L726.96-2.60Q730.08-2.60 731.92-3.74Q733.76-4.88 733.76-6.96L733.76-6.96Q733.76-8.72 732.16-9.76Q730.56-10.80 726.48-11.52L726.48-11.52Q721.20-12.44 719.00-14.16Q716.80-15.88 716.80-18.96L716.80-18.96Q716.80-21.08 718.00-22.88Q719.20-24.68 721.44-25.74Q723.68-26.80 726.64-26.80L726.64-26.80Z M773.16-26.40L773.16-23.40L763.96-23.40L763.96 0L760.76 0L760.76-23.40L751.56-23.40L751.56-26.40L773.16-26.40Z M793.96-3L809.88-3L809.88 0L790.76 0L790.76-26.40L809.28-26.40L809.28-23.40L793.96-23.40L793.96-14.88L805.88-14.88L805.88-11.88L793.96-11.88L793.96-3Z M853.80-26.40L853.80 0L850.76 0L850.76-16.60L851.12-23.56L851.08-23.56L842.40 0L839.68 0L831.00-23.56L830.96-23.56L831.32-16.60L831.32 0L828.28 0L828.28-26.40L833.20-26.40L839.00-10.36L841.00-3.76L841.08-3.76L843.12-10.32L848.88-26.40L853.80-26.40Z"/></g>
</svg>
</g><g opacity="1" transform="rotate(0 2052.6643 1652.9028)">
<svg width="395.7213" height="100" x="2052.6643" y="1652.9028" version="1.1" preserveAspectRatio="none" viewBox="4.8 -28.48 114.6 28.96">
  <g transform="matrix(1 0 0 1 0 0)" class="companyName"><path id="id-D6z1nYkh3" d="M22.88-28L4.80-28L4.80 0L22.88 0L22.88-2.20L8.44-2.20L8.44-13.92L20.84-13.92L20.84-15.76L8.44-15.76L8.44-25.80L22.88-25.80L22.88-28Z M60.44-3.96L47.60-28L44.88-28L44.88 0L46.64 0L46.64-22.84L46.80-22.84L59.16 0.48L59.88 0.48L72.52-22.68L72.68-22.68L72.68 0L76.32 0L76.32-28L73.56-28L60.60-3.96L60.44-3.96Z M101.32-7.08L98.60-7.08Q98.68-5.36 99.50-3.96Q100.32-2.56 101.74-1.58Q103.16-0.60 105.08-0.06Q107 0.48 109.28 0.48L109.28 0.48Q111.60 0.48 113.46-0.08Q115.32-0.64 116.64-1.68Q117.96-2.72 118.68-4.20Q119.40-5.68 119.40-7.48L119.40-7.48Q119.40-9.96 118.16-11.54Q116.92-13.12 115.06-14.18Q113.20-15.24 111.02-15.96Q108.84-16.68 106.98-17.48Q105.12-18.28 103.88-19.32Q102.64-20.36 102.64-22.08L102.64-22.08Q102.64-23.04 103.06-23.88Q103.48-24.72 104.30-25.34Q105.12-25.96 106.32-26.34Q107.52-26.72 109.08-26.72L109.08-26.72Q111.68-26.72 113.50-25.62Q115.32-24.52 115.64-22.16L115.64-22.16L118.36-22.16Q118.12-23.64 117.28-24.82Q116.44-26 115.16-26.82Q113.88-27.64 112.26-28.06Q110.64-28.48 108.88-28.48L108.88-28.48Q107.04-28.48 105.38-28Q103.72-27.52 102.46-26.60Q101.20-25.68 100.46-24.28Q99.72-22.88 99.72-21.08L99.72-21.08Q99.72-18.72 100.92-17.28Q102.12-15.84 103.94-14.88Q105.76-13.92 107.88-13.24Q110-12.56 111.82-11.70Q113.64-10.84 114.84-9.60Q116.04-8.36 116.04-6.28L116.04-6.28Q116.04-3.68 114.14-2.48Q112.24-1.28 109.08-1.28L109.08-1.28Q106.56-1.28 105.04-1.94Q103.52-2.60 102.72-3.52Q101.92-4.44 101.64-5.42Q101.36-6.40 101.32-7.08L101.32-7.08Z"/></g>
</svg>
</g><g opacity="1" transform="rotate(0 2092.1883 1282.9028)">
<svg width="316.6733" height="300" x="2092.1883" y="1282.9028" version="1.1" preserveAspectRatio="none" viewBox="2.4999964237213135 4.9999189376831055 94.9906234741211 89.9892349243164">
  <g transform="matrix(1 0 0 1 0 0)" class="companyName"><title>Artboard 23</title><path d="M51.93,83.33H26.76V69.67a5.61,5.61,0,0,0-5.6-5.6H7.5V39H79.63v5.83a2.5,2.5,0,0,0,5,0V20.45a5.61,5.61,0,0,0-5.6-5.6H70V7.52A2.5,2.5,0,0,0,67.48,5h-12A2.5,2.5,0,0,0,53,7.52v7.33H34.17V7.52A2.5,2.5,0,0,0,31.67,5h-12a2.5,2.5,0,0,0-2.5,2.5v7.33H8.1a5.61,5.61,0,0,0-5.6,5.6V67.71a2.5,2.5,0,0,0,.73,1.77L21.36,87.6a2.5,2.5,0,0,0,1.77.73H51.93a2.5,2.5,0,0,0,0-5ZM58,10h7V21.74H58Zm-35.8,0h7V21.74h-7ZM8.1,19.85h9.05v4.39a2.5,2.5,0,0,0,2.5,2.5h12a2.5,2.5,0,0,0,2.5-2.5V19.85H53v4.39a2.5,2.5,0,0,0,2.5,2.5h12a2.5,2.5,0,0,0,2.5-2.5V19.85H79a.6.6,0,0,1,.6.6V34H7.5V20.45A.6.6,0,0,1,8.1,19.85ZM9.9,69.07H21.16a.6.6,0,0,1,.6.6V80.94Zm85.46-3.45-13-1.89L76.5,51.92a2.5,2.5,0,0,0-4.48,0L66.18,63.73l-13,1.89a2.5,2.5,0,0,0-1.39,4.26l9.43,9.19L59,92.06A2.5,2.5,0,0,0,62.6,94.7l11.66-6.13L85.91,94.7a2.5,2.5,0,0,0,3.63-2.64l-2.23-13,9.43-9.19a2.5,2.5,0,0,0-1.39-4.26ZM82.88,76.42a2.5,2.5,0,0,0-.72,2.21l1.59,9.28-8.34-4.38a2.5,2.5,0,0,0-2.33,0l-8.34,4.38,1.59-9.28a2.5,2.5,0,0,0-.72-2.21l-6.75-6.58,9.32-1.35a2.5,2.5,0,0,0,1.88-1.37l4.17-8.45,4.17,8.45a2.5,2.5,0,0,0,1.88,1.37l9.32,1.35Z"></path></g>
</svg>
</g></svg></svg>