<svg version="1.1" preserveAspectRatio="none" xmlns="http://www.w3.org/2000/svg" width="500" height="500" viewBox="0 0 500 500"><rect width="100%" height="100%" fill="#F7F7F7" fill-opacity="1"/><svg viewBox="115.3111 518.5 415.3831 213.8" width="333" height="171.3969586148305" x="83.5px" y="164.3015px" xmlns="http://www.w3.org/2000/svg" xmlns:xlink="http://www.w3.org/1999/xlink" preserveAspectRatio="none"><defs></defs><style>.companyName {fill:#535353;fill-opacity:1;}.icon1 {fill:#F7CEC1;fill-opacity:1;}.icon3-str {stroke:#9C9C9C;stroke-opacity:1;}.shapeStroke-str {stroke:#535353;stroke-opacity:1;}.text {fill:#535353;fill-opacity:1;}</style><g opacity="1" transform="rotate(0 115.3111 703.5)">
<svg width="415.3831" height="28.8" x="115.3111" y="703.5" version="1.1" preserveAspectRatio="none" viewBox="3.76 -28.4 525 36.4">
  <g transform="matrix(1 0 0 1 0 0)" class="text"><path id="id-6izo4zJp23" d="M19.64-2.36Q20.16-2.36 20.50-2Q20.84-1.64 20.84-1.16L20.84-1.16Q20.84-0.64 20.50-0.32Q20.16 0 19.64 0L19.64 0L4.96 0Q4.44 0 4.10-0.34Q3.76-0.68 3.76-1.20L3.76-1.20L3.76-26.80Q3.76-27.32 4.10-27.66Q4.44-28 4.96-28L4.96-28L19.64-28Q20.16-28 20.50-27.66Q20.84-27.32 20.84-26.80L20.84-26.80Q20.84-26.28 20.50-25.96Q20.16-25.64 19.64-25.64L19.64-25.64L6.28-25.64L6.28-15.60L17.84-15.60Q18.36-15.60 18.70-15.26Q19.04-14.92 19.04-14.40L19.04-14.40Q19.04-13.88 18.70-13.56Q18.36-13.24 17.84-13.24L17.84-13.24L6.28-13.24L6.28-2.36L19.64-2.36Z M41.92-20.84Q42.32-20.84 42.68-20.56Q43.04-20.28 43.04-19.84L43.04-19.84Q43.04-19.48 42.88-19.16L42.88-19.16L35.04-0.76Q34.88-0.44 34.58-0.22Q34.28 0 33.96 0L33.96 0Q33.56 0.04 33.24-0.16Q32.92-0.36 32.76-0.76L32.76-0.76L24.88-19.16Q24.88-19.24 24.82-19.40Q24.76-19.56 24.76-19.72L24.76-19.72Q24.76-20.20 25.08-20.54Q25.40-20.88 26.00-20.88L26.00-20.88Q26.36-20.88 26.66-20.66Q26.96-20.44 27.12-20.08L27.12-20.08L33.92-3.88L40.76-20.08Q40.92-20.44 41.22-20.66Q41.52-20.88 41.92-20.84L41.92-20.84Z M65.92-11.40Q65.92-10.92 65.56-10.58Q65.20-10.24 64.72-10.24L64.72-10.24L49.60-10.24Q49.60-7.84 50.58-5.94Q51.56-4.04 53.38-2.94Q55.20-1.84 57.68-1.84L57.68-1.84Q59.60-1.84 61.12-2.64Q62.64-3.44 63.56-4.68L63.56-4.68Q64-5.04 64.40-5.04L64.40-5.04Q64.80-5.04 65.12-4.72Q65.44-4.40 65.44-4L65.44-4Q65.44-3.56 65.04-3.16L65.04-3.16Q63.76-1.60 61.82-0.60Q59.88 0.40 57.72 0.40L57.72 0.40Q54.64 0.40 52.28-0.92Q49.92-2.24 48.60-4.62Q47.28-7 47.28-10.12L47.28-10.12Q47.28-13.40 48.58-15.86Q49.88-18.32 52.04-19.62Q54.20-20.92 56.64-20.92L56.64-20.92Q59.04-20.92 61.14-19.80Q63.24-18.68 64.56-16.52Q65.88-14.36 65.92-11.40L65.92-11.40ZM56.64-18.60Q54.32-18.60 52.34-17Q50.36-15.40 49.80-12.40L49.80-12.40L63.44-12.40L63.44-12.72Q63.24-14.52 62.24-15.86Q61.24-17.20 59.74-17.90Q58.24-18.60 56.64-18.60L56.64-18.60Z M81.72-20.92Q85.44-20.92 87.18-18.74Q88.92-16.56 88.92-12.96L88.92-12.96L88.92-1.20Q88.92-0.68 88.56-0.34Q88.20 0 87.72 0L87.72 0Q87.20 0 86.86-0.34Q86.52-0.68 86.52-1.20L86.52-1.20L86.52-12.84Q86.52-15.44 85.22-17.06Q83.92-18.68 81.20-18.68L81.20-18.68Q79.48-18.68 77.94-17.88Q76.40-17.08 75.44-15.74Q74.48-14.40 74.48-12.84L74.48-12.84L74.48-1.20Q74.48-0.68 74.14-0.34Q73.80 0 73.28 0L73.28 0Q72.76 0 72.42-0.34Q72.08-0.68 72.08-1.20L72.08-1.20L72.08-19.12Q72.08-19.64 72.42-19.98Q72.76-20.32 73.28-20.32L73.28-20.32Q73.80-20.32 74.14-19.98Q74.48-19.64 74.48-19.12L74.48-19.12L74.48-16.92Q75.56-18.64 77.58-19.78Q79.60-20.92 81.72-20.92L81.72-20.92Z M104.40-18.12L100.40-18.12L100.40-4.72Q100.40-3.20 100.96-2.66Q101.52-2.12 102.44-2.12L102.44-2.12Q102.68-2.12 103.04-2.22Q103.40-2.32 103.60-2.32L103.60-2.32Q103.96-2.32 104.22-2.02Q104.48-1.72 104.48-1.32L104.48-1.32Q104.48-0.76 103.84-0.38Q103.20 0 102.32 0L102.32 0Q101.24 0 100.40-0.20Q99.56-0.40 98.78-1.40Q98.00-2.40 98.00-4.60L98.00-4.60L98.00-18.12L95.08-18.12Q94.60-18.12 94.26-18.44Q93.92-18.76 93.92-19.24L93.92-19.24Q93.92-19.72 94.26-20.04Q94.60-20.36 95.08-20.36L95.08-20.36L98.00-20.36L98.00-24.80Q98.00-25.32 98.34-25.66Q98.68-26 99.20-26L99.20-26Q99.72-26 100.06-25.66Q100.40-25.32 100.40-24.80L100.40-24.80L100.40-20.36L104.40-20.36Q104.84-20.36 105.18-20Q105.52-19.64 105.52-19.20L105.52-19.20Q105.52-18.72 105.20-18.42Q104.88-18.12 104.40-18.12L104.40-18.12Z M148.28-28Q148.76-28 149.10-27.66Q149.44-27.32 149.44-26.80L149.44-26.80L149.44-1.20Q149.44-0.68 149.08-0.34Q148.72 0 148.20 0L148.20 0Q147.64 0 147.28-0.34Q146.92-0.68 146.92-1.20L146.92-1.20L146.92-23.20L137.52-8.96Q137.12-8.44 136.60-8.48L136.60-8.48L136.52-8.48Q136.04-8.48 135.64-8.96L135.64-8.96L126.24-23.28L126.24-1.20Q126.24-0.68 125.90-0.34Q125.56 0 125.04 0L125.04 0Q124.52 0 124.20-0.34Q123.88-0.68 123.88-1.20L123.88-1.20L123.88-26.80Q123.88-27.28 124.22-27.64Q124.56-28 125.08-28L125.08-28Q125.36-28 125.68-27.86Q126.00-27.72 126.16-27.48L126.16-27.48L136.64-11.76L147.20-27.48Q147.64-28.08 148.28-28L148.28-28Z M174.16-20.44Q174.68-20.44 175.02-20.08Q175.36-19.72 175.36-19.20L175.36-19.20L175.36-1.20Q175.36-0.68 175.02-0.34Q174.68 0 174.16 0L174.16 0Q173.64 0 173.30-0.34Q172.96-0.68 172.96-1.20L172.96-1.20L172.96-3.88Q171.96-2.08 169.96-0.84Q167.96 0.40 165.60 0.40L165.60 0.40Q162.92 0.40 160.78-1Q158.64-2.40 157.42-4.84Q156.20-7.28 156.20-10.32L156.20-10.32Q156.20-13.36 157.44-15.78Q158.68-18.20 160.82-19.56Q162.96-20.92 165.56-20.92L165.56-20.92Q167.96-20.92 169.96-19.76Q171.96-18.60 172.96-16.72L172.96-16.72L172.96-19.20Q172.96-19.72 173.30-20.08Q173.64-20.44 174.16-20.44L174.16-20.44ZM165.84-1.84Q167.92-1.84 169.58-2.94Q171.24-4.04 172.18-5.98Q173.12-7.92 173.12-10.32L173.12-10.32Q173.12-12.64 172.18-14.56Q171.24-16.48 169.58-17.58Q167.92-18.68 165.84-18.68L165.84-18.68Q163.76-18.68 162.10-17.60Q160.44-16.52 159.50-14.62Q158.56-12.72 158.56-10.32L158.56-10.32Q158.56-7.92 159.48-5.98Q160.40-4.04 162.06-2.94Q163.72-1.84 165.84-1.84L165.84-1.84Z M192.48-20.92Q196.20-20.92 197.94-18.74Q199.68-16.56 199.68-12.96L199.68-12.96L199.68-1.20Q199.68-0.68 199.32-0.34Q198.96 0 198.48 0L198.48 0Q197.96 0 197.62-0.34Q197.28-0.68 197.28-1.20L197.28-1.20L197.28-12.84Q197.28-15.44 195.98-17.06Q194.68-18.68 191.96-18.68L191.96-18.68Q190.24-18.68 188.70-17.88Q187.16-17.08 186.20-15.74Q185.24-14.40 185.24-12.84L185.24-12.84L185.24-1.20Q185.24-0.68 184.90-0.34Q184.56 0 184.04 0L184.04 0Q183.52 0 183.18-0.34Q182.84-0.68 182.84-1.20L182.84-1.20L182.84-19.12Q182.84-19.64 183.18-19.98Q183.52-20.32 184.04-20.32L184.04-20.32Q184.56-20.32 184.90-19.98Q185.24-19.64 185.24-19.12L185.24-19.12L185.24-16.92Q186.32-18.64 188.34-19.78Q190.36-20.92 192.48-20.92L192.48-20.92Z M223.76-20.44Q224.28-20.44 224.62-20.08Q224.96-19.72 224.96-19.20L224.96-19.20L224.96-1.20Q224.96-0.68 224.62-0.34Q224.28 0 223.76 0L223.76 0Q223.24 0 222.90-0.34Q222.56-0.68 222.56-1.20L222.56-1.20L222.56-3.88Q221.56-2.08 219.56-0.84Q217.56 0.40 215.20 0.40L215.20 0.40Q212.52 0.40 210.38-1Q208.24-2.40 207.02-4.84Q205.80-7.28 205.80-10.32L205.80-10.32Q205.80-13.36 207.04-15.78Q208.28-18.20 210.42-19.56Q212.56-20.92 215.16-20.92L215.16-20.92Q217.56-20.92 219.56-19.76Q221.56-18.60 222.56-16.72L222.56-16.72L222.56-19.20Q222.56-19.72 222.90-20.08Q223.24-20.44 223.76-20.44L223.76-20.44ZM215.44-1.84Q217.52-1.84 219.18-2.94Q220.84-4.04 221.78-5.98Q222.72-7.92 222.72-10.32L222.72-10.32Q222.72-12.64 221.78-14.56Q220.84-16.48 219.18-17.58Q217.52-18.68 215.44-18.68L215.44-18.68Q213.36-18.68 211.70-17.60Q210.04-16.52 209.10-14.62Q208.16-12.72 208.16-10.32L208.16-10.32Q208.16-7.92 209.08-5.98Q210-4.04 211.66-2.94Q213.32-1.84 215.44-1.84L215.44-1.84Z M249.72-20.44Q250.24-20.44 250.58-20.10Q250.92-19.76 250.92-19.20L250.92-19.20L250.92-1.88Q250.92 1.24 249.62 3.46Q248.32 5.68 246.06 6.84Q243.80 8 240.88 8L240.88 8Q239.48 8 237.94 7.64Q236.40 7.28 235.30 6.72Q234.20 6.16 234.04 5.56L234.04 5.56Q233.76 5.28 233.76 4.92L233.76 4.92Q233.76 4.52 234.12 4.28L234.12 4.28Q234.28 4.16 234.52 4.16L234.52 4.16Q234.76 4.16 235.44 4.44L235.44 4.44L236.28 4.80Q238.76 5.76 240.92 5.76L240.92 5.76Q244.48 5.76 246.50 3.74Q248.52 1.72 248.52-1.72L248.52-1.72L248.52-4.20Q247.52-2.04 245.36-0.82Q243.20 0.40 240.84 0.40L240.84 0.40Q238.08 0.40 235.86-0.98Q233.64-2.36 232.36-4.80Q231.08-7.24 231.08-10.28L231.08-10.28Q231.08-13.28 232.36-15.72Q233.64-18.16 235.86-19.54Q238.08-20.92 240.80-20.92L240.80-20.92Q243.32-20.92 245.42-19.66Q247.52-18.40 248.52-16.64L248.52-16.64L248.52-19.20Q248.52-19.72 248.86-20.08Q249.20-20.44 249.72-20.44L249.72-20.44ZM241.04-1.84Q243.24-1.84 244.98-2.90Q246.72-3.96 247.70-5.90Q248.68-7.84 248.68-10.28L248.68-10.28Q248.68-12.72 247.70-14.64Q246.72-16.56 244.98-17.62Q243.24-18.68 241.04-18.68L241.04-18.68Q238.88-18.68 237.14-17.58Q235.40-16.48 234.42-14.56Q233.44-12.64 233.44-10.28L233.44-10.28Q233.44-7.88 234.42-5.96Q235.40-4.04 237.14-2.94Q238.88-1.84 241.04-1.84L241.04-1.84Z M274.92-11.40Q274.92-10.92 274.56-10.58Q274.20-10.24 273.72-10.24L273.72-10.24L258.60-10.24Q258.60-7.84 259.58-5.94Q260.56-4.04 262.38-2.94Q264.20-1.84 266.68-1.84L266.68-1.84Q268.60-1.84 270.12-2.64Q271.64-3.44 272.56-4.68L272.56-4.68Q273-5.04 273.40-5.04L273.40-5.04Q273.80-5.04 274.12-4.72Q274.44-4.40 274.44-4L274.44-4Q274.44-3.56 274.04-3.16L274.04-3.16Q272.76-1.60 270.82-0.60Q268.88 0.40 266.72 0.40L266.72 0.40Q263.64 0.40 261.28-0.92Q258.92-2.24 257.60-4.62Q256.28-7 256.28-10.12L256.28-10.12Q256.28-13.40 257.58-15.86Q258.88-18.32 261.04-19.62Q263.20-20.92 265.64-20.92L265.64-20.92Q268.04-20.92 270.14-19.80Q272.24-18.68 273.56-16.52Q274.88-14.36 274.92-11.40L274.92-11.40ZM265.64-18.60Q263.32-18.60 261.34-17Q259.36-15.40 258.80-12.40L258.80-12.40L272.44-12.40L272.44-12.72Q272.24-14.52 271.24-15.86Q270.24-17.20 268.74-17.90Q267.24-18.60 265.64-18.60L265.64-18.60Z M304.28-20.60Q307.88-20.60 309.58-18.38Q311.28-16.16 311.28-12.52L311.28-12.52L311.28-1.20Q311.28-0.68 310.94-0.34Q310.60 0 310.08 0L310.08 0Q309.56 0 309.22-0.34Q308.88-0.68 308.88-1.20L308.88-1.20L308.88-12.40Q308.88-15.04 307.62-16.70Q306.36-18.36 303.72-18.36L303.72-18.36Q302.04-18.36 300.54-17.56Q299.04-16.76 298.12-15.38Q297.20-14 297.20-12.40L297.20-12.40L297.20-1.20Q297.20-0.68 296.86-0.34Q296.52 0 296.00 0L296.00 0Q295.48 0 295.14-0.34Q294.80-0.68 294.80-1.20L294.80-1.20L294.80-12.52Q294.80-15.12 293.60-16.74Q292.40-18.36 289.84-18.36L289.84-18.36Q288.20-18.36 286.74-17.56Q285.28-16.76 284.38-15.42Q283.48-14.08 283.48-12.52L283.48-12.52L283.48-1.20Q283.48-0.68 283.14-0.34Q282.80 0 282.28 0L282.28 0Q281.76 0 281.42-0.34Q281.08-0.68 281.08-1.20L281.08-1.20L281.08-19.12Q281.08-19.64 281.42-19.98Q281.76-20.32 282.28-20.32L282.28-20.32Q282.80-20.32 283.14-19.98Q283.48-19.64 283.48-19.12L283.48-19.12L283.48-16.80Q284.56-18.44 286.40-19.52Q288.24-20.60 290.28-20.60L290.28-20.60Q292.60-20.60 294.28-19.48Q295.96-18.36 296.68-16.20L296.68-16.20Q297.52-17.96 299.76-19.28Q302.00-20.60 304.28-20.60L304.28-20.60Z M336.04-11.40Q336.04-10.92 335.68-10.58Q335.32-10.24 334.84-10.24L334.84-10.24L319.72-10.24Q319.72-7.84 320.70-5.94Q321.68-4.04 323.50-2.94Q325.32-1.84 327.80-1.84L327.80-1.84Q329.72-1.84 331.24-2.64Q332.76-3.44 333.68-4.68L333.68-4.68Q334.12-5.04 334.52-5.04L334.52-5.04Q334.92-5.04 335.24-4.72Q335.56-4.40 335.56-4L335.56-4Q335.56-3.56 335.16-3.16L335.16-3.16Q333.88-1.60 331.94-0.60Q330.00 0.40 327.84 0.40L327.84 0.40Q324.76 0.40 322.40-0.92Q320.04-2.24 318.72-4.62Q317.40-7 317.40-10.12L317.40-10.12Q317.40-13.40 318.70-15.86Q320.00-18.32 322.16-19.62Q324.32-20.92 326.76-20.92L326.76-20.92Q329.16-20.92 331.26-19.80Q333.36-18.68 334.68-16.52Q336.00-14.36 336.04-11.40L336.04-11.40ZM326.76-18.60Q324.44-18.60 322.46-17Q320.48-15.40 319.92-12.40L319.92-12.40L333.56-12.40L333.56-12.72Q333.36-14.52 332.36-15.86Q331.36-17.20 329.86-17.90Q328.36-18.60 326.76-18.60L326.76-18.60Z M351.84-20.92Q355.56-20.92 357.30-18.74Q359.04-16.56 359.04-12.96L359.04-12.96L359.04-1.20Q359.04-0.68 358.68-0.34Q358.32 0 357.84 0L357.84 0Q357.32 0 356.98-0.34Q356.64-0.68 356.64-1.20L356.64-1.20L356.64-12.84Q356.64-15.44 355.34-17.06Q354.04-18.68 351.32-18.68L351.32-18.68Q349.60-18.68 348.06-17.88Q346.52-17.08 345.56-15.74Q344.60-14.40 344.60-12.84L344.60-12.84L344.60-1.20Q344.60-0.68 344.26-0.34Q343.92 0 343.40 0L343.40 0Q342.88 0 342.54-0.34Q342.20-0.68 342.20-1.20L342.20-1.20L342.20-19.12Q342.20-19.64 342.54-19.98Q342.88-20.32 343.40-20.32L343.40-20.32Q343.92-20.32 344.26-19.98Q344.60-19.64 344.60-19.12L344.60-19.12L344.60-16.92Q345.68-18.64 347.70-19.78Q349.72-20.92 351.84-20.92L351.84-20.92Z M374.52-18.12L370.52-18.12L370.52-4.72Q370.52-3.20 371.08-2.66Q371.64-2.12 372.56-2.12L372.56-2.12Q372.80-2.12 373.16-2.22Q373.52-2.32 373.72-2.32L373.72-2.32Q374.08-2.32 374.34-2.02Q374.60-1.72 374.60-1.32L374.60-1.32Q374.60-0.76 373.96-0.38Q373.32 0 372.44 0L372.44 0Q371.36 0 370.52-0.20Q369.68-0.40 368.90-1.40Q368.12-2.40 368.12-4.60L368.12-4.60L368.12-18.12L365.20-18.12Q364.72-18.12 364.38-18.44Q364.04-18.76 364.04-19.24L364.04-19.24Q364.04-19.72 364.38-20.04Q364.72-20.36 365.20-20.36L365.20-20.36L368.12-20.36L368.12-24.80Q368.12-25.32 368.46-25.66Q368.80-26 369.32-26L369.32-26Q369.84-26 370.18-25.66Q370.52-25.32 370.52-24.80L370.52-24.80L370.52-20.36L374.52-20.36Q374.96-20.36 375.30-20Q375.64-19.64 375.64-19.20L375.64-19.20Q375.64-18.72 375.32-18.42Q375.00-18.12 374.52-18.12L374.52-18.12Z M401.56 0.40Q398.68 0.40 396.46-0.56Q394.24-1.52 392.16-3.56L392.16-3.56Q391.68-3.96 391.68-4.52L391.68-4.52Q391.68-5 392.06-5.40Q392.44-5.80 392.92-5.80L392.92-5.80Q393.40-5.80 393.80-5.40L393.80-5.40Q396.92-1.96 401.60-1.96L401.60-1.96Q404.48-1.96 406.38-3.32Q408.28-4.68 408.28-6.88L408.28-6.88Q408.28-8.60 407.34-9.74Q406.40-10.88 404.88-11.60Q403.36-12.32 401.00-13.08L401.00-13.08Q398.44-13.84 396.70-14.76Q394.96-15.68 393.88-17.22Q392.80-18.76 392.80-21.12L392.80-21.12Q392.80-23.24 393.94-24.88Q395.08-26.52 397.14-27.46Q399.20-28.40 401.88-28.40L401.88-28.40Q404.32-28.40 406.46-27.58Q408.60-26.76 409.88-25.24L409.88-25.24Q410.48-24.56 410.48-24.08L410.48-24.08Q410.48-23.64 410.08-23.26Q409.68-22.88 409.20-22.88L409.20-22.88Q408.80-22.88 408.52-23.16L408.52-23.16Q407.44-24.44 405.64-25.24Q403.84-26.04 401.88-26.04L401.88-26.04Q398.96-26.04 397.12-24.74Q395.28-23.44 395.28-21.20L395.28-21.20Q395.28-18.88 397.04-17.64Q398.80-16.40 402.08-15.36L402.08-15.36Q404.92-14.52 406.72-13.64Q408.52-12.76 409.66-11.14Q410.80-9.52 410.80-6.88L410.80-6.88Q410.80-4.84 409.62-3.18Q408.44-1.52 406.34-0.56Q404.24 0.40 401.56 0.40L401.56 0.40Z M432.32-20.80Q432.84-20.80 433.18-20.46Q433.52-20.12 433.52-19.60L433.52-19.60L433.52-1.96Q433.52 1.20 432.28 3.44Q431.04 5.68 428.84 6.84Q426.64 8 423.88 8L423.88 8Q422.20 8 420.74 7.64Q419.28 7.28 418.32 6.68L418.32 6.68Q417.48 6.16 417.48 5.52L417.48 5.52Q417.48 5.44 417.56 5.12L417.56 5.12Q417.68 4.72 417.96 4.52Q418.24 4.32 418.56 4.32L418.56 4.32Q418.80 4.32 419.04 4.44L419.04 4.44Q421.60 5.84 423.92 5.84L423.92 5.84Q427.24 5.84 429.18 3.76Q431.12 1.68 431.12-1.92L431.12-1.92L431.12-3.32Q430.12-1.64 428.24-0.62Q426.36 0.40 424.16 0.40L424.16 0.40Q420.68 0.40 418.88-1.68Q417.08-3.76 417.08-7.32L417.08-7.32L417.08-19.60Q417.08-20.12 417.42-20.46Q417.76-20.80 418.28-20.80L418.28-20.80Q418.80-20.80 419.14-20.46Q419.48-20.12 419.48-19.60L419.48-19.60L419.48-7.68Q419.48-4.80 420.74-3.32Q422.00-1.84 424.68-1.84L424.68-1.84Q426.32-1.84 427.82-2.66Q429.32-3.48 430.22-4.82Q431.12-6.16 431.12-7.68L431.12-7.68L431.12-19.60Q431.12-20.12 431.46-20.46Q431.80-20.80 432.32-20.80L432.32-20.80Z M439.44-3.24Q439.12-3.76 439.12-4.12L439.12-4.12Q439.12-4.64 439.64-4.92L439.64-4.92Q439.88-5.16 440.28-5.16L440.28-5.16Q440.76-5.16 441.16-4.76L441.16-4.76Q443.52-1.64 447.44-1.64L447.44-1.64Q449.36-1.64 450.78-2.54Q452.20-3.44 452.20-5.16L452.20-5.16Q452.20-6.84 450.88-7.68Q449.56-8.52 447.20-9.12L447.20-9.12Q443.88-9.96 442-11.30Q440.12-12.64 440.12-15.24L440.12-15.24Q440.12-16.88 441.04-18.18Q441.96-19.48 443.54-20.20Q445.12-20.92 447.12-20.92L447.12-20.92Q448.84-20.92 450.58-20.26Q452.32-19.60 453.56-18.16L453.56-18.16Q453.92-17.88 453.92-17.36L453.92-17.36Q453.92-16.88 453.52-16.52L453.52-16.52Q453.24-16.28 452.80-16.28L452.80-16.28Q452.40-16.28 452.08-16.60L452.08-16.60Q451.12-17.68 449.80-18.24Q448.48-18.80 446.96-18.80L446.96-18.80Q445.08-18.80 443.74-17.92Q442.40-17.04 442.40-15.28L442.40-15.28Q442.48-13.68 443.86-12.84Q445.24-12 447.92-11.32L447.92-11.32Q450-10.80 451.36-10.16Q452.72-9.52 453.58-8.36Q454.44-7.20 454.44-5.28L454.44-5.28Q454.44-2.68 452.36-1.14Q450.28 0.40 447.20 0.40L447.20 0.40Q442.32 0.40 439.44-3.24L439.44-3.24Z M468.56-18.12L464.56-18.12L464.56-4.72Q464.56-3.20 465.12-2.66Q465.68-2.12 466.60-2.12L466.60-2.12Q466.84-2.12 467.20-2.22Q467.56-2.32 467.76-2.32L467.76-2.32Q468.12-2.32 468.38-2.02Q468.64-1.72 468.64-1.32L468.64-1.32Q468.64-0.76 468-0.38Q467.36 0 466.48 0L466.48 0Q465.40 0 464.56-0.20Q463.72-0.40 462.94-1.40Q462.16-2.40 462.16-4.60L462.16-4.60L462.16-18.12L459.24-18.12Q458.76-18.12 458.42-18.44Q458.08-18.76 458.08-19.24L458.08-19.24Q458.08-19.72 458.42-20.04Q458.76-20.36 459.24-20.36L459.24-20.36L462.16-20.36L462.16-24.80Q462.16-25.32 462.50-25.66Q462.84-26 463.36-26L463.36-26Q463.88-26 464.22-25.66Q464.56-25.32 464.56-24.80L464.56-24.80L464.56-20.36L468.56-20.36Q469-20.36 469.34-20Q469.68-19.64 469.68-19.20L469.68-19.20Q469.68-18.72 469.36-18.42Q469.04-18.12 468.56-18.12L468.56-18.12Z M492.40-11.40Q492.40-10.92 492.04-10.58Q491.68-10.24 491.20-10.24L491.20-10.24L476.08-10.24Q476.08-7.84 477.06-5.94Q478.04-4.04 479.86-2.94Q481.68-1.84 484.16-1.84L484.16-1.84Q486.08-1.84 487.60-2.64Q489.12-3.44 490.04-4.68L490.04-4.68Q490.48-5.04 490.88-5.04L490.88-5.04Q491.28-5.04 491.60-4.72Q491.92-4.40 491.92-4L491.92-4Q491.92-3.56 491.52-3.16L491.52-3.16Q490.24-1.60 488.30-0.60Q486.36 0.40 484.20 0.40L484.20 0.40Q481.12 0.40 478.76-0.92Q476.40-2.24 475.08-4.62Q473.76-7 473.76-10.12L473.76-10.12Q473.76-13.40 475.06-15.86Q476.36-18.32 478.52-19.62Q480.68-20.92 483.12-20.92L483.12-20.92Q485.52-20.92 487.62-19.80Q489.72-18.68 491.04-16.52Q492.36-14.36 492.40-11.40L492.40-11.40ZM483.12-18.60Q480.80-18.60 478.82-17Q476.84-15.40 476.28-12.40L476.28-12.40L489.92-12.40L489.92-12.72Q489.72-14.52 488.72-15.86Q487.72-17.20 486.22-17.90Q484.72-18.60 483.12-18.60L483.12-18.60Z M521.76-20.60Q525.36-20.60 527.06-18.38Q528.76-16.16 528.76-12.52L528.76-12.52L528.76-1.20Q528.76-0.68 528.42-0.34Q528.08 0 527.56 0L527.56 0Q527.04 0 526.70-0.34Q526.36-0.68 526.36-1.20L526.36-1.20L526.36-12.40Q526.36-15.04 525.10-16.70Q523.84-18.36 521.20-18.36L521.20-18.36Q519.52-18.36 518.02-17.56Q516.52-16.76 515.60-15.38Q514.68-14 514.68-12.40L514.68-12.40L514.68-1.20Q514.68-0.68 514.34-0.34Q514 0 513.48 0L513.48 0Q512.96 0 512.62-0.34Q512.28-0.68 512.28-1.20L512.28-1.20L512.28-12.52Q512.28-15.12 511.08-16.74Q509.88-18.36 507.32-18.36L507.32-18.36Q505.68-18.36 504.22-17.56Q502.76-16.76 501.86-15.42Q500.96-14.08 500.96-12.52L500.96-12.52L500.96-1.20Q500.96-0.68 500.62-0.34Q500.28 0 499.76 0L499.76 0Q499.24 0 498.90-0.34Q498.56-0.68 498.56-1.20L498.56-1.20L498.56-19.12Q498.56-19.64 498.90-19.98Q499.24-20.32 499.76-20.32L499.76-20.32Q500.28-20.32 500.62-19.98Q500.96-19.64 500.96-19.12L500.96-19.12L500.96-16.80Q502.04-18.44 503.88-19.52Q505.72-20.60 507.76-20.60L507.76-20.60Q510.08-20.60 511.76-19.48Q513.44-18.36 514.16-16.20L514.16-16.20Q515-17.96 517.24-19.28Q519.48-20.60 521.76-20.60L521.76-20.60Z"/></g>
</svg>
</g><g opacity="1" transform="rotate(0 171.754 557.5)">
<svg width="302.4973" height="120" x="171.754" y="557.5" version="1.1" preserveAspectRatio="none" viewBox="3.76 -28.4 72.6 28.8">
  <g transform="matrix(1 0 0 1 0 0)" class="companyName"><path id="id-D6z1nYkh3" d="M19.64-2.36Q20.16-2.36 20.50-2Q20.84-1.64 20.84-1.16L20.84-1.16Q20.84-0.64 20.50-0.32Q20.16 0 19.64 0L19.64 0L4.96 0Q4.44 0 4.10-0.34Q3.76-0.68 3.76-1.20L3.76-1.20L3.76-26.80Q3.76-27.32 4.10-27.66Q4.44-28 4.96-28L4.96-28L19.64-28Q20.16-28 20.50-27.66Q20.84-27.32 20.84-26.80L20.84-26.80Q20.84-26.28 20.50-25.96Q20.16-25.64 19.64-25.64L19.64-25.64L6.28-25.64L6.28-15.60L17.84-15.60Q18.36-15.60 18.70-15.26Q19.04-14.92 19.04-14.40L19.04-14.40Q19.04-13.88 18.70-13.56Q18.36-13.24 17.84-13.24L17.84-13.24L6.28-13.24L6.28-2.36L19.64-2.36Z M50.88-28Q51.36-28 51.70-27.66Q52.04-27.32 52.04-26.80L52.04-26.80L52.04-1.20Q52.04-0.68 51.68-0.34Q51.32 0 50.80 0L50.80 0Q50.24 0 49.88-0.34Q49.52-0.68 49.52-1.20L49.52-1.20L49.52-23.20L40.12-8.96Q39.72-8.44 39.20-8.48L39.20-8.48L39.12-8.48Q38.64-8.48 38.24-8.96L38.24-8.96L28.84-23.28L28.84-1.20Q28.84-0.68 28.50-0.34Q28.16 0 27.64 0L27.64 0Q27.12 0 26.80-0.34Q26.48-0.68 26.48-1.20L26.48-1.20L26.48-26.80Q26.48-27.28 26.82-27.64Q27.16-28 27.68-28L27.68-28Q27.96-28 28.28-27.86Q28.60-27.72 28.76-27.48L28.76-27.48L39.24-11.76L49.80-27.48Q50.24-28.08 50.88-28L50.88-28Z M67.12 0.40Q64.24 0.40 62.02-0.56Q59.80-1.52 57.72-3.56L57.72-3.56Q57.24-3.96 57.24-4.52L57.24-4.52Q57.24-5 57.62-5.40Q58-5.80 58.48-5.80L58.48-5.80Q58.96-5.80 59.36-5.40L59.36-5.40Q62.48-1.96 67.16-1.96L67.16-1.96Q70.04-1.96 71.94-3.32Q73.84-4.68 73.84-6.88L73.84-6.88Q73.84-8.60 72.90-9.74Q71.96-10.88 70.44-11.60Q68.92-12.32 66.56-13.08L66.56-13.08Q64-13.84 62.26-14.76Q60.52-15.68 59.44-17.22Q58.36-18.76 58.36-21.12L58.36-21.12Q58.36-23.24 59.50-24.88Q60.64-26.52 62.70-27.46Q64.76-28.40 67.44-28.40L67.44-28.40Q69.88-28.40 72.02-27.58Q74.16-26.76 75.44-25.24L75.44-25.24Q76.04-24.56 76.04-24.08L76.04-24.08Q76.04-23.64 75.64-23.26Q75.24-22.88 74.76-22.88L74.76-22.88Q74.36-22.88 74.08-23.16L74.08-23.16Q73-24.44 71.20-25.24Q69.40-26.04 67.44-26.04L67.44-26.04Q64.52-26.04 62.68-24.74Q60.84-23.44 60.84-21.20L60.84-21.20Q60.84-18.88 62.60-17.64Q64.36-16.40 67.64-15.36L67.64-15.36Q70.48-14.52 72.28-13.64Q74.08-12.76 75.22-11.14Q76.36-9.52 76.36-6.88L76.36-6.88Q76.36-4.84 75.18-3.18Q74-1.52 71.90-0.56Q69.80 0.40 67.12 0.40L67.12 0.40Z"/></g>
</svg>
</g><g opacity="1" transform="rotate(0 263.0027 518.5)">
<svg width="120" height="9" x="263.0027" y="518.5" version="1.1" preserveAspectRatio="none" viewBox="0 0 120 9">
  <defs><rect x="0" y="0" width="120" height="9" rx="0%" ry="0%" id="id-80LYwx1g1680774766120"></rect></defs><use class="icon1 shapeStroke-str" style="stroke-width:0;" xlink:href="#id-80LYwx1g1680774766120"></use>
</svg>
</g></svg></svg>